<?xml version="1.0" encoding="utf-8" standalone="no"?>
<!DOCTYPE svg PUBLIC "-//W3C//DTD SVG 1.1//EN"
  "http://www.w3.org/Graphics/SVG/1.1/DTD/svg11.dtd">
<svg xmlns:xlink="http://www.w3.org/1999/xlink" width="864pt" height="302.4pt" viewBox="0 0 864 302.4" xmlns="http://www.w3.org/2000/svg" version="1.1">
 <metadata>
  <rdf:RDF xmlns:dc="http://purl.org/dc/elements/1.1/" xmlns:cc="http://creativecommons.org/ns#" xmlns:rdf="http://www.w3.org/1999/02/22-rdf-syntax-ns#">
   <cc:Work>
    <dc:type rdf:resource="http://purl.org/dc/dcmitype/StillImage"/>
    <dc:format>image/svg+xml</dc:format>
    <dc:creator>
     <cc:Agent>
      <dc:title>Matplotlib v3.11.2, https://matplotlib.org/</dc:title>
     </cc:Agent>
    </dc:creator>
   </cc:Work>
  </rdf:RDF>
 </metadata>
 <defs>
  <style type="text/css">*{stroke-linejoin: round; stroke-linecap: butt}</style>
 </defs>
 <g id="figure_1">
  <g id="patch_1">
   <path d="M 0 302.4 
L 864 302.4 
L 864 0 
L 0 0 
z
" style="fill: #1a1a19"/>
  </g>
  <g id="axes_1">
   <g id="patch_2">
    <path d="M 20.06 279.1 
L 485.92407 279.1 
L 485.92407 42.16 
L 20.06 42.16 
z
" style="fill: #1a1a19"/>
   </g>
   <g id="matplotlib.axis_1">
    <g id="xtick_1">
     <g id="line2d_1"/>
     <g id="text_1">
      <!-- 2018 -->
      <g style="fill: #898781" transform="translate(49.532441 289.437891) scale(0.09 -0.09)">
       <defs>
        <path id="DejaVuSans-15" d="M 1228 531 
L 3431 531 
L 3431 0 
L 469 0 
L 469 531 
Q 828 903 1448 1529 
Q 2069 2156 2228 2338 
Q 2531 2678 2651 2914 
Q 2772 3150 2772 3378 
Q 2772 3750 2511 3984 
Q 2250 4219 1831 4219 
Q 1534 4219 1204 4116 
Q 875 4013 500 3803 
L 500 4441 
Q 881 4594 1212 4672 
Q 1544 4750 1819 4750 
Q 2544 4750 2975 4387 
Q 3406 4025 3406 3419 
Q 3406 3131 3298 2873 
Q 3191 2616 2906 2266 
Q 2828 2175 2409 1742 
Q 1991 1309 1228 531 
z
" transform="scale(0.015625)"/>
        <path id="DejaVuSans-13" d="M 2034 4250 
Q 1547 4250 1301 3770 
Q 1056 3291 1056 2328 
Q 1056 1369 1301 889 
Q 1547 409 2034 409 
Q 2525 409 2770 889 
Q 3016 1369 3016 2328 
Q 3016 3291 2770 3770 
Q 2525 4250 2034 4250 
z
M 2034 4750 
Q 2819 4750 3233 4129 
Q 3647 3509 3647 2328 
Q 3647 1150 3233 529 
Q 2819 -91 2034 -91 
Q 1250 -91 836 529 
Q 422 1150 422 2328 
Q 422 3509 836 4129 
Q 1250 4750 2034 4750 
z
" transform="scale(0.015625)"/>
        <path id="DejaVuSans-14" d="M 794 531 
L 1825 531 
L 1825 4091 
L 703 3866 
L 703 4441 
L 1819 4666 
L 2450 4666 
L 2450 531 
L 3481 531 
L 3481 0 
L 794 0 
L 794 531 
z
" transform="scale(0.015625)"/>
        <path id="DejaVuSans-1b" d="M 2034 2216 
Q 1584 2216 1326 1975 
Q 1069 1734 1069 1313 
Q 1069 891 1326 650 
Q 1584 409 2034 409 
Q 2484 409 2743 651 
Q 3003 894 3003 1313 
Q 3003 1734 2745 1975 
Q 2488 2216 2034 2216 
z
M 1403 2484 
Q 997 2584 770 2862 
Q 544 3141 544 3541 
Q 544 4100 942 4425 
Q 1341 4750 2034 4750 
Q 2731 4750 3128 4425 
Q 3525 4100 3525 3541 
Q 3525 3141 3298 2862 
Q 3072 2584 2669 2484 
Q 3125 2378 3379 2068 
Q 3634 1759 3634 1313 
Q 3634 634 3220 271 
Q 2806 -91 2034 -91 
Q 1263 -91 848 271 
Q 434 634 434 1313 
Q 434 1759 690 2068 
Q 947 2378 1403 2484 
z
M 1172 3481 
Q 1172 3119 1398 2916 
Q 1625 2713 2034 2713 
Q 2441 2713 2670 2916 
Q 2900 3119 2900 3481 
Q 2900 3844 2670 4047 
Q 2441 4250 2034 4250 
Q 1625 4250 1398 4047 
Q 1172 3844 1172 3481 
z
" transform="scale(0.015625)"/>
       </defs>
       <use xlink:href="#DejaVuSans-15"/>
       <use xlink:href="#DejaVuSans-13" transform="translate(63.625 0)"/>
       <use xlink:href="#DejaVuSans-14" transform="translate(127.25 0)"/>
       <use xlink:href="#DejaVuSans-1b" transform="translate(190.875 0)"/>
      </g>
     </g>
    </g>
    <g id="xtick_2">
     <g id="line2d_2"/>
     <g id="text_2">
      <!-- 2019 -->
      <g style="fill: #898781" transform="translate(104.39161 289.437891) scale(0.09 -0.09)">
       <defs>
        <path id="DejaVuSans-1c" d="M 703 97 
L 703 672 
Q 941 559 1184 500 
Q 1428 441 1663 441 
Q 2288 441 2617 861 
Q 2947 1281 2994 2138 
Q 2813 1869 2534 1725 
Q 2256 1581 1919 1581 
Q 1219 1581 811 2004 
Q 403 2428 403 3163 
Q 403 3881 828 4315 
Q 1253 4750 1959 4750 
Q 2769 4750 3195 4129 
Q 3622 3509 3622 2328 
Q 3622 1225 3098 567 
Q 2575 -91 1691 -91 
Q 1453 -91 1209 -44 
Q 966 3 703 97 
z
M 1959 2075 
Q 2384 2075 2632 2365 
Q 2881 2656 2881 3163 
Q 2881 3666 2632 3958 
Q 2384 4250 1959 4250 
Q 1534 4250 1286 3958 
Q 1038 3666 1038 3163 
Q 1038 2656 1286 2365 
Q 1534 2075 1959 2075 
z
" transform="scale(0.015625)"/>
       </defs>
       <use xlink:href="#DejaVuSans-15"/>
       <use xlink:href="#DejaVuSans-13" transform="translate(63.625 0)"/>
       <use xlink:href="#DejaVuSans-14" transform="translate(127.25 0)"/>
       <use xlink:href="#DejaVuSans-1c" transform="translate(190.875 0)"/>
      </g>
     </g>
    </g>
    <g id="xtick_3">
     <g id="line2d_3"/>
     <g id="text_3">
      <!-- 2020 -->
      <g style="fill: #898781" transform="translate(159.25078 289.437891) scale(0.09 -0.09)">
       <use xlink:href="#DejaVuSans-15"/>
       <use xlink:href="#DejaVuSans-13" transform="translate(63.625 0)"/>
       <use xlink:href="#DejaVuSans-15" transform="translate(127.25 0)"/>
       <use xlink:href="#DejaVuSans-13" transform="translate(190.875 0)"/>
      </g>
     </g>
    </g>
    <g id="xtick_4">
     <g id="line2d_4"/>
     <g id="text_4">
      <!-- 2021 -->
      <g style="fill: #898781" transform="translate(214.10995 289.437891) scale(0.09 -0.09)">
       <use xlink:href="#DejaVuSans-15"/>
       <use xlink:href="#DejaVuSans-13" transform="translate(63.625 0)"/>
       <use xlink:href="#DejaVuSans-15" transform="translate(127.25 0)"/>
       <use xlink:href="#DejaVuSans-14" transform="translate(190.875 0)"/>
      </g>
     </g>
    </g>
    <g id="xtick_5">
     <g id="line2d_5"/>
     <g id="text_5">
      <!-- 2022 -->
      <g style="fill: #898781" transform="translate(268.96912 289.437891) scale(0.09 -0.09)">
       <use xlink:href="#DejaVuSans-15"/>
       <use xlink:href="#DejaVuSans-13" transform="translate(63.625 0)"/>
       <use xlink:href="#DejaVuSans-15" transform="translate(127.25 0)"/>
       <use xlink:href="#DejaVuSans-15" transform="translate(190.875 0)"/>
      </g>
     </g>
    </g>
    <g id="xtick_6">
     <g id="line2d_6"/>
     <g id="text_6">
      <!-- 2023 -->
      <g style="fill: #898781" transform="translate(323.82829 289.437891) scale(0.09 -0.09)">
       <defs>
        <path id="DejaVuSans-16" d="M 2597 2516 
Q 3050 2419 3304 2112 
Q 3559 1806 3559 1356 
Q 3559 666 3084 287 
Q 2609 -91 1734 -91 
Q 1441 -91 1130 -33 
Q 819 25 488 141 
L 488 750 
Q 750 597 1062 519 
Q 1375 441 1716 441 
Q 2309 441 2620 675 
Q 2931 909 2931 1356 
Q 2931 1769 2642 2001 
Q 2353 2234 1838 2234 
L 1294 2234 
L 1294 2753 
L 1863 2753 
Q 2328 2753 2575 2939 
Q 2822 3125 2822 3475 
Q 2822 3834 2567 4026 
Q 2313 4219 1838 4219 
Q 1578 4219 1281 4162 
Q 984 4106 628 3988 
L 628 4550 
Q 988 4650 1302 4700 
Q 1616 4750 1894 4750 
Q 2613 4750 3031 4423 
Q 3450 4097 3450 3541 
Q 3450 3153 3228 2886 
Q 3006 2619 2597 2516 
z
" transform="scale(0.015625)"/>
       </defs>
       <use xlink:href="#DejaVuSans-15"/>
       <use xlink:href="#DejaVuSans-13" transform="translate(63.625 0)"/>
       <use xlink:href="#DejaVuSans-15" transform="translate(127.25 0)"/>
       <use xlink:href="#DejaVuSans-16" transform="translate(190.875 0)"/>
      </g>
     </g>
    </g>
    <g id="xtick_7">
     <g id="line2d_7"/>
     <g id="text_7">
      <!-- 2024 -->
      <g style="fill: #898781" transform="translate(378.687459 289.437891) scale(0.09 -0.09)">
       <defs>
        <path id="DejaVuSans-17" d="M 2419 4116 
L 825 1625 
L 2419 1625 
L 2419 4116 
z
M 2253 4666 
L 3047 4666 
L 3047 1625 
L 3713 1625 
L 3713 1100 
L 3047 1100 
L 3047 0 
L 2419 0 
L 2419 1100 
L 313 1100 
L 313 1709 
L 2253 4666 
z
" transform="scale(0.015625)"/>
       </defs>
       <use xlink:href="#DejaVuSans-15"/>
       <use xlink:href="#DejaVuSans-13" transform="translate(63.625 0)"/>
       <use xlink:href="#DejaVuSans-15" transform="translate(127.25 0)"/>
       <use xlink:href="#DejaVuSans-17" transform="translate(190.875 0)"/>
      </g>
     </g>
    </g>
    <g id="xtick_8">
     <g id="line2d_8"/>
     <g id="text_8">
      <!-- 2025 -->
      <g style="fill: #898781" transform="translate(433.546629 289.437891) scale(0.09 -0.09)">
       <defs>
        <path id="DejaVuSans-18" d="M 691 4666 
L 3169 4666 
L 3169 4134 
L 1269 4134 
L 1269 2991 
Q 1406 3038 1543 3061 
Q 1681 3084 1819 3084 
Q 2600 3084 3056 2656 
Q 3513 2228 3513 1497 
Q 3513 744 3044 326 
Q 2575 -91 1722 -91 
Q 1428 -91 1123 -41 
Q 819 9 494 109 
L 494 744 
Q 775 591 1075 516 
Q 1375 441 1709 441 
Q 2250 441 2565 725 
Q 2881 1009 2881 1497 
Q 2881 1984 2565 2268 
Q 2250 2553 1709 2553 
Q 1456 2553 1204 2497 
Q 953 2441 691 2322 
L 691 4666 
z
" transform="scale(0.015625)"/>
       </defs>
       <use xlink:href="#DejaVuSans-15"/>
       <use xlink:href="#DejaVuSans-13" transform="translate(63.625 0)"/>
       <use xlink:href="#DejaVuSans-15" transform="translate(127.25 0)"/>
       <use xlink:href="#DejaVuSans-18" transform="translate(190.875 0)"/>
      </g>
     </g>
    </g>
   </g>
   <g id="matplotlib.axis_2">
    <g id="ytick_1">
     <g id="line2d_9">
      <path d="M 20.06 279.1 
L 485.92407 279.1 
" clip-path="url(#p81e0cc2d73)" style="fill: none; stroke: #2c2c2a; stroke-width: 0.8; stroke-linecap: square"/>
     </g>
     <g id="line2d_10"/>
     <g id="text_9">
      <!-- 0 -->
      <g style="fill: #898781" transform="translate(10.83375 282.518945) scale(0.09 -0.09)">
       <use xlink:href="#DejaVuSans-13"/>
      </g>
     </g>
    </g>
    <g id="ytick_2">
     <g id="line2d_11">
      <path d="M 20.06 42.16 
L 485.92407 42.16 
" clip-path="url(#p81e0cc2d73)" style="fill: none; stroke: #2c2c2a; stroke-width: 0.8; stroke-linecap: square"/>
     </g>
     <g id="line2d_12"/>
     <g id="text_10">
      <!-- 1 -->
      <g style="fill: #898781" transform="translate(10.83375 45.578945) scale(0.09 -0.09)">
       <use xlink:href="#DejaVuSans-14"/>
      </g>
     </g>
    </g>
   </g>
   <g id="patch_3">
    <path d="M 41.23564 279.1 
L 80.734242 279.1 
L 80.734242 42.16 
L 41.23564 42.16 
z
" clip-path="url(#p81e0cc2d73)" style="fill: #3987e5; stroke: #1a1a19; stroke-width: 1.5; stroke-linejoin: miter"/>
   </g>
   <g id="patch_4">
    <path d="M 96.094809 279.1 
L 135.593412 279.1 
L 135.593412 279.1 
L 96.094809 279.1 
z
" clip-path="url(#p81e0cc2d73)" style="fill: #3987e5; stroke: #1a1a19; stroke-width: 1.5; stroke-linejoin: miter"/>
   </g>
   <g id="patch_5">
    <path d="M 150.953979 279.1 
L 190.452581 279.1 
L 190.452581 279.1 
L 150.953979 279.1 
z
" clip-path="url(#p81e0cc2d73)" style="fill: #3987e5; stroke: #1a1a19; stroke-width: 1.5; stroke-linejoin: miter"/>
   </g>
   <g id="patch_6">
    <path d="M 205.813149 279.1 
L 245.311751 279.1 
L 245.311751 279.1 
L 205.813149 279.1 
z
" clip-path="url(#p81e0cc2d73)" style="fill: #3987e5; stroke: #1a1a19; stroke-width: 1.5; stroke-linejoin: miter"/>
   </g>
   <g id="patch_7">
    <path d="M 260.672319 279.1 
L 300.170921 279.1 
L 300.170921 279.1 
L 260.672319 279.1 
z
" clip-path="url(#p81e0cc2d73)" style="fill: #3987e5; stroke: #1a1a19; stroke-width: 1.5; stroke-linejoin: miter"/>
   </g>
   <g id="patch_8">
    <path d="M 315.531488 279.1 
L 355.030091 279.1 
L 355.030091 279.1 
L 315.531488 279.1 
z
" clip-path="url(#p81e0cc2d73)" style="fill: #3987e5; stroke: #1a1a19; stroke-width: 1.5; stroke-linejoin: miter"/>
   </g>
   <g id="patch_9">
    <path d="M 370.390658 279.1 
L 409.88926 279.1 
L 409.88926 279.1 
L 370.390658 279.1 
z
" clip-path="url(#p81e0cc2d73)" style="fill: #3987e5; stroke: #1a1a19; stroke-width: 1.5; stroke-linejoin: miter"/>
   </g>
   <g id="patch_10">
    <path d="M 425.249828 279.1 
L 464.74843 279.1 
L 464.74843 279.1 
L 425.249828 279.1 
z
" clip-path="url(#p81e0cc2d73)" style="fill: #3987e5; stroke: #1a1a19; stroke-width: 1.5; stroke-linejoin: miter"/>
   </g>
   <g id="patch_11">
    <path d="M 41.23564 42.16 
L 80.734242 42.16 
L 80.734242 42.16 
L 41.23564 42.16 
z
" clip-path="url(#p81e0cc2d73)" style="fill: #d95926; stroke: #1a1a19; stroke-width: 1.5; stroke-linejoin: miter"/>
   </g>
   <g id="patch_12">
    <path d="M 96.094809 279.1 
L 135.593412 279.1 
L 135.593412 279.1 
L 96.094809 279.1 
z
" clip-path="url(#p81e0cc2d73)" style="fill: #d95926; stroke: #1a1a19; stroke-width: 1.5; stroke-linejoin: miter"/>
   </g>
   <g id="patch_13">
    <path d="M 150.953979 279.1 
L 190.452581 279.1 
L 190.452581 279.1 
L 150.953979 279.1 
z
" clip-path="url(#p81e0cc2d73)" style="fill: #d95926; stroke: #1a1a19; stroke-width: 1.5; stroke-linejoin: miter"/>
   </g>
   <g id="patch_14">
    <path d="M 205.813149 279.1 
L 245.311751 279.1 
L 245.311751 279.1 
L 205.813149 279.1 
z
" clip-path="url(#p81e0cc2d73)" style="fill: #d95926; stroke: #1a1a19; stroke-width: 1.5; stroke-linejoin: miter"/>
   </g>
   <g id="patch_15">
    <path d="M 260.672319 279.1 
L 300.170921 279.1 
L 300.170921 279.1 
L 260.672319 279.1 
z
" clip-path="url(#p81e0cc2d73)" style="fill: #d95926; stroke: #1a1a19; stroke-width: 1.5; stroke-linejoin: miter"/>
   </g>
   <g id="patch_16">
    <path d="M 315.531488 279.1 
L 355.030091 279.1 
L 355.030091 279.1 
L 315.531488 279.1 
z
" clip-path="url(#p81e0cc2d73)" style="fill: #d95926; stroke: #1a1a19; stroke-width: 1.5; stroke-linejoin: miter"/>
   </g>
   <g id="patch_17">
    <path d="M 370.390658 279.1 
L 409.88926 279.1 
L 409.88926 279.1 
L 370.390658 279.1 
z
" clip-path="url(#p81e0cc2d73)" style="fill: #d95926; stroke: #1a1a19; stroke-width: 1.5; stroke-linejoin: miter"/>
   </g>
   <g id="patch_18">
    <path d="M 425.249828 279.1 
L 464.74843 279.1 
L 464.74843 279.1 
L 425.249828 279.1 
z
" clip-path="url(#p81e0cc2d73)" style="fill: #d95926; stroke: #1a1a19; stroke-width: 1.5; stroke-linejoin: miter"/>
   </g>
   <g id="patch_19">
    <path d="M 41.23564 42.16 
L 80.734242 42.16 
L 80.734242 42.16 
L 41.23564 42.16 
z
" clip-path="url(#p81e0cc2d73)" style="fill: #199e70; stroke: #1a1a19; stroke-width: 1.5; stroke-linejoin: miter"/>
   </g>
   <g id="patch_20">
    <path d="M 96.094809 279.1 
L 135.593412 279.1 
L 135.593412 279.1 
L 96.094809 279.1 
z
" clip-path="url(#p81e0cc2d73)" style="fill: #199e70; stroke: #1a1a19; stroke-width: 1.5; stroke-linejoin: miter"/>
   </g>
   <g id="patch_21">
    <path d="M 150.953979 279.1 
L 190.452581 279.1 
L 190.452581 279.1 
L 150.953979 279.1 
z
" clip-path="url(#p81e0cc2d73)" style="fill: #199e70; stroke: #1a1a19; stroke-width: 1.5; stroke-linejoin: miter"/>
   </g>
   <g id="patch_22">
    <path d="M 205.813149 279.1 
L 245.311751 279.1 
L 245.311751 279.1 
L 205.813149 279.1 
z
" clip-path="url(#p81e0cc2d73)" style="fill: #199e70; stroke: #1a1a19; stroke-width: 1.5; stroke-linejoin: miter"/>
   </g>
   <g id="patch_23">
    <path d="M 260.672319 279.1 
L 300.170921 279.1 
L 300.170921 279.1 
L 260.672319 279.1 
z
" clip-path="url(#p81e0cc2d73)" style="fill: #199e70; stroke: #1a1a19; stroke-width: 1.5; stroke-linejoin: miter"/>
   </g>
   <g id="patch_24">
    <path d="M 315.531488 279.1 
L 355.030091 279.1 
L 355.030091 279.1 
L 315.531488 279.1 
z
" clip-path="url(#p81e0cc2d73)" style="fill: #199e70; stroke: #1a1a19; stroke-width: 1.5; stroke-linejoin: miter"/>
   </g>
   <g id="patch_25">
    <path d="M 370.390658 279.1 
L 409.88926 279.1 
L 409.88926 279.1 
L 370.390658 279.1 
z
" clip-path="url(#p81e0cc2d73)" style="fill: #199e70; stroke: #1a1a19; stroke-width: 1.5; stroke-linejoin: miter"/>
   </g>
   <g id="patch_26">
    <path d="M 425.249828 279.1 
L 464.74843 279.1 
L 464.74843 42.16 
L 425.249828 42.16 
z
" clip-path="url(#p81e0cc2d73)" style="fill: #199e70; stroke: #1a1a19; stroke-width: 1.5; stroke-linejoin: miter"/>
   </g>
   <g id="patch_27">
    <path d="M 41.23564 42.16 
L 80.734242 42.16 
L 80.734242 42.16 
L 41.23564 42.16 
z
" clip-path="url(#p81e0cc2d73)" style="fill: #c98500; stroke: #1a1a19; stroke-width: 1.5; stroke-linejoin: miter"/>
   </g>
   <g id="patch_28">
    <path d="M 96.094809 279.1 
L 135.593412 279.1 
L 135.593412 279.1 
L 96.094809 279.1 
z
" clip-path="url(#p81e0cc2d73)" style="fill: #c98500; stroke: #1a1a19; stroke-width: 1.5; stroke-linejoin: miter"/>
   </g>
   <g id="patch_29">
    <path d="M 150.953979 279.1 
L 190.452581 279.1 
L 190.452581 279.1 
L 150.953979 279.1 
z
" clip-path="url(#p81e0cc2d73)" style="fill: #c98500; stroke: #1a1a19; stroke-width: 1.5; stroke-linejoin: miter"/>
   </g>
   <g id="patch_30">
    <path d="M 205.813149 279.1 
L 245.311751 279.1 
L 245.311751 279.1 
L 205.813149 279.1 
z
" clip-path="url(#p81e0cc2d73)" style="fill: #c98500; stroke: #1a1a19; stroke-width: 1.5; stroke-linejoin: miter"/>
   </g>
   <g id="patch_31">
    <path d="M 260.672319 279.1 
L 300.170921 279.1 
L 300.170921 279.1 
L 260.672319 279.1 
z
" clip-path="url(#p81e0cc2d73)" style="fill: #c98500; stroke: #1a1a19; stroke-width: 1.5; stroke-linejoin: miter"/>
   </g>
   <g id="patch_32">
    <path d="M 315.531488 279.1 
L 355.030091 279.1 
L 355.030091 279.1 
L 315.531488 279.1 
z
" clip-path="url(#p81e0cc2d73)" style="fill: #c98500; stroke: #1a1a19; stroke-width: 1.5; stroke-linejoin: miter"/>
   </g>
   <g id="patch_33">
    <path d="M 370.390658 279.1 
L 409.88926 279.1 
L 409.88926 279.1 
L 370.390658 279.1 
z
" clip-path="url(#p81e0cc2d73)" style="fill: #c98500; stroke: #1a1a19; stroke-width: 1.5; stroke-linejoin: miter"/>
   </g>
   <g id="patch_34">
    <path d="M 425.249828 42.16 
L 464.74843 42.16 
L 464.74843 42.16 
L 425.249828 42.16 
z
" clip-path="url(#p81e0cc2d73)" style="fill: #c98500; stroke: #1a1a19; stroke-width: 1.5; stroke-linejoin: miter"/>
   </g>
   <g id="patch_35">
    <path d="M 20.06 279.1 
L 485.92407 279.1 
" style="fill: none; stroke: #383835; stroke-width: 0.8; stroke-linejoin: miter; stroke-linecap: square"/>
   </g>
   <g id="text_11">
    <!-- 1 -->
    <g style="fill: #c3c2b7" transform="translate(58.439941 36.684025) scale(0.08 -0.08)">
     <use xlink:href="#DejaVuSans-14"/>
    </g>
   </g>
   <g id="text_12">
    <!-- 1 -->
    <g style="fill: #c3c2b7" transform="translate(442.454129 36.684025) scale(0.08 -0.08)">
     <use xlink:href="#DejaVuSans-14"/>
    </g>
   </g>
   <g id="text_13">
    <!-- By research area (2026 is year to date) -->
    <g style="fill: #c3c2b7" transform="translate(20.06 31.704991) scale(0.09 -0.09)">
     <defs>
      <path id="DejaVuSans-25" d="M 1259 2228 
L 1259 519 
L 2272 519 
Q 2781 519 3026 730 
Q 3272 941 3272 1375 
Q 3272 1813 3026 2020 
Q 2781 2228 2272 2228 
L 1259 2228 
z
M 1259 4147 
L 1259 2741 
L 2194 2741 
Q 2656 2741 2882 2914 
Q 3109 3088 3109 3444 
Q 3109 3797 2882 3972 
Q 2656 4147 2194 4147 
L 1259 4147 
z
M 628 4666 
L 2241 4666 
Q 2963 4666 3353 4366 
Q 3744 4066 3744 3513 
Q 3744 3084 3544 2831 
Q 3344 2578 2956 2516 
Q 3422 2416 3680 2098 
Q 3938 1781 3938 1306 
Q 3938 681 3513 340 
Q 3088 0 2303 0 
L 628 0 
L 628 4666 
z
" transform="scale(0.015625)"/>
      <path id="DejaVuSans-5c" d="M 2059 -325 
Q 1816 -950 1584 -1140 
Q 1353 -1331 966 -1331 
L 506 -1331 
L 506 -850 
L 844 -850 
Q 1081 -850 1212 -737 
Q 1344 -625 1503 -206 
L 1606 56 
L 191 3500 
L 800 3500 
L 1894 763 
L 2988 3500 
L 3597 3500 
L 2059 -325 
z
" transform="scale(0.015625)"/>
      <path id="DejaVuSans-3" transform="scale(0.015625)"/>
      <path id="DejaVuSans-55" d="M 2631 2963 
Q 2534 3019 2420 3045 
Q 2306 3072 2169 3072 
Q 1681 3072 1420 2755 
Q 1159 2438 1159 1844 
L 1159 0 
L 581 0 
L 581 3500 
L 1159 3500 
L 1159 2956 
Q 1341 3275 1631 3429 
Q 1922 3584 2338 3584 
Q 2397 3584 2469 3576 
Q 2541 3569 2628 3553 
L 2631 2963 
z
" transform="scale(0.015625)"/>
      <path id="DejaVuSans-48" d="M 3597 1894 
L 3597 1613 
L 953 1613 
Q 991 1019 1311 708 
Q 1631 397 2203 397 
Q 2534 397 2845 478 
Q 3156 559 3463 722 
L 3463 178 
Q 3153 47 2828 -22 
Q 2503 -91 2169 -91 
Q 1331 -91 842 396 
Q 353 884 353 1716 
Q 353 2575 817 3079 
Q 1281 3584 2069 3584 
Q 2775 3584 3186 3129 
Q 3597 2675 3597 1894 
z
M 3022 2063 
Q 3016 2534 2758 2815 
Q 2500 3097 2075 3097 
Q 1594 3097 1305 2825 
Q 1016 2553 972 2059 
L 3022 2063 
z
" transform="scale(0.015625)"/>
      <path id="DejaVuSans-56" d="M 2834 3397 
L 2834 2853 
Q 2591 2978 2328 3040 
Q 2066 3103 1784 3103 
Q 1356 3103 1142 2972 
Q 928 2841 928 2578 
Q 928 2378 1081 2264 
Q 1234 2150 1697 2047 
L 1894 2003 
Q 2506 1872 2764 1633 
Q 3022 1394 3022 966 
Q 3022 478 2636 193 
Q 2250 -91 1575 -91 
Q 1294 -91 989 -36 
Q 684 19 347 128 
L 347 722 
Q 666 556 975 473 
Q 1284 391 1588 391 
Q 1994 391 2212 530 
Q 2431 669 2431 922 
Q 2431 1156 2273 1281 
Q 2116 1406 1581 1522 
L 1381 1569 
Q 847 1681 609 1914 
Q 372 2147 372 2553 
Q 372 3047 722 3315 
Q 1072 3584 1716 3584 
Q 2034 3584 2315 3537 
Q 2597 3491 2834 3397 
z
" transform="scale(0.015625)"/>
      <path id="DejaVuSans-44" d="M 2194 1759 
Q 1497 1759 1228 1600 
Q 959 1441 959 1056 
Q 959 750 1161 570 
Q 1363 391 1709 391 
Q 2188 391 2477 730 
Q 2766 1069 2766 1631 
L 2766 1759 
L 2194 1759 
z
M 3341 1997 
L 3341 0 
L 2766 0 
L 2766 531 
Q 2569 213 2275 61 
Q 1981 -91 1556 -91 
Q 1019 -91 701 211 
Q 384 513 384 1019 
Q 384 1609 779 1909 
Q 1175 2209 1959 2209 
L 2766 2209 
L 2766 2266 
Q 2766 2663 2505 2880 
Q 2244 3097 1772 3097 
Q 1472 3097 1187 3025 
Q 903 2953 641 2809 
L 641 3341 
Q 956 3463 1253 3523 
Q 1550 3584 1831 3584 
Q 2591 3584 2966 3190 
Q 3341 2797 3341 1997 
z
" transform="scale(0.015625)"/>
      <path id="DejaVuSans-46" d="M 3122 3366 
L 3122 2828 
Q 2878 2963 2633 3030 
Q 2388 3097 2138 3097 
Q 1578 3097 1268 2742 
Q 959 2388 959 1747 
Q 959 1106 1268 751 
Q 1578 397 2138 397 
Q 2388 397 2633 464 
Q 2878 531 3122 666 
L 3122 134 
Q 2881 22 2623 -34 
Q 2366 -91 2075 -91 
Q 1284 -91 818 406 
Q 353 903 353 1747 
Q 353 2603 823 3093 
Q 1294 3584 2113 3584 
Q 2378 3584 2631 3529 
Q 2884 3475 3122 3366 
z
" transform="scale(0.015625)"/>
      <path id="DejaVuSans-4b" d="M 3513 2113 
L 3513 0 
L 2938 0 
L 2938 2094 
Q 2938 2591 2744 2837 
Q 2550 3084 2163 3084 
Q 1697 3084 1428 2787 
Q 1159 2491 1159 1978 
L 1159 0 
L 581 0 
L 581 4863 
L 1159 4863 
L 1159 2956 
Q 1366 3272 1645 3428 
Q 1925 3584 2291 3584 
Q 2894 3584 3203 3211 
Q 3513 2838 3513 2113 
z
" transform="scale(0.015625)"/>
      <path id="DejaVuSans-b" d="M 1984 4856 
Q 1566 4138 1362 3434 
Q 1159 2731 1159 2009 
Q 1159 1288 1364 580 
Q 1569 -128 1984 -844 
L 1484 -844 
Q 1016 -109 783 600 
Q 550 1309 550 2009 
Q 550 2706 781 3412 
Q 1013 4119 1484 4856 
L 1984 4856 
z
" transform="scale(0.015625)"/>
      <path id="DejaVuSans-19" d="M 2113 2584 
Q 1688 2584 1439 2293 
Q 1191 2003 1191 1497 
Q 1191 994 1439 701 
Q 1688 409 2113 409 
Q 2538 409 2786 701 
Q 3034 994 3034 1497 
Q 3034 2003 2786 2293 
Q 2538 2584 2113 2584 
z
M 3366 4563 
L 3366 3988 
Q 3128 4100 2886 4159 
Q 2644 4219 2406 4219 
Q 1781 4219 1451 3797 
Q 1122 3375 1075 2522 
Q 1259 2794 1537 2939 
Q 1816 3084 2150 3084 
Q 2853 3084 3261 2657 
Q 3669 2231 3669 1497 
Q 3669 778 3244 343 
Q 2819 -91 2113 -91 
Q 1303 -91 875 529 
Q 447 1150 447 2328 
Q 447 3434 972 4092 
Q 1497 4750 2381 4750 
Q 2619 4750 2861 4703 
Q 3103 4656 3366 4563 
z
" transform="scale(0.015625)"/>
      <path id="DejaVuSans-4c" d="M 603 3500 
L 1178 3500 
L 1178 0 
L 603 0 
L 603 3500 
z
M 603 4863 
L 1178 4863 
L 1178 4134 
L 603 4134 
L 603 4863 
z
" transform="scale(0.015625)"/>
      <path id="DejaVuSans-57" d="M 1172 4494 
L 1172 3500 
L 2356 3500 
L 2356 3053 
L 1172 3053 
L 1172 1153 
Q 1172 725 1289 603 
Q 1406 481 1766 481 
L 2356 481 
L 2356 0 
L 1766 0 
Q 1100 0 847 248 
Q 594 497 594 1153 
L 594 3053 
L 172 3053 
L 172 3500 
L 594 3500 
L 594 4494 
L 1172 4494 
z
" transform="scale(0.015625)"/>
      <path id="DejaVuSans-52" d="M 1959 3097 
Q 1497 3097 1228 2736 
Q 959 2375 959 1747 
Q 959 1119 1226 758 
Q 1494 397 1959 397 
Q 2419 397 2687 759 
Q 2956 1122 2956 1747 
Q 2956 2369 2687 2733 
Q 2419 3097 1959 3097 
z
M 1959 3584 
Q 2709 3584 3137 3096 
Q 3566 2609 3566 1747 
Q 3566 888 3137 398 
Q 2709 -91 1959 -91 
Q 1206 -91 779 398 
Q 353 888 353 1747 
Q 353 2609 779 3096 
Q 1206 3584 1959 3584 
z
" transform="scale(0.015625)"/>
      <path id="DejaVuSans-47" d="M 2906 2969 
L 2906 4863 
L 3481 4863 
L 3481 0 
L 2906 0 
L 2906 525 
Q 2725 213 2448 61 
Q 2172 -91 1784 -91 
Q 1150 -91 751 415 
Q 353 922 353 1747 
Q 353 2572 751 3078 
Q 1150 3584 1784 3584 
Q 2172 3584 2448 3432 
Q 2725 3281 2906 2969 
z
M 947 1747 
Q 947 1113 1208 752 
Q 1469 391 1925 391 
Q 2381 391 2643 752 
Q 2906 1113 2906 1747 
Q 2906 2381 2643 2742 
Q 2381 3103 1925 3103 
Q 1469 3103 1208 2742 
Q 947 2381 947 1747 
z
" transform="scale(0.015625)"/>
      <path id="DejaVuSans-c" d="M 513 4856 
L 1013 4856 
Q 1481 4119 1714 3412 
Q 1947 2706 1947 2009 
Q 1947 1309 1714 600 
Q 1481 -109 1013 -844 
L 513 -844 
Q 928 -128 1133 580 
Q 1338 1288 1338 2009 
Q 1338 2731 1133 3434 
Q 928 4138 513 4856 
z
" transform="scale(0.015625)"/>
     </defs>
     <use xlink:href="#DejaVuSans-25"/>
     <use xlink:href="#DejaVuSans-5c" transform="translate(68.609375 0)"/>
     <use xlink:href="#DejaVuSans-3" transform="translate(127.796875 0)"/>
     <use xlink:href="#DejaVuSans-55" transform="translate(159.578125 0)"/>
     <use xlink:href="#DejaVuSans-48" transform="translate(198.484375 0)"/>
     <use xlink:href="#DejaVuSans-56" transform="translate(260.015625 0)"/>
     <use xlink:href="#DejaVuSans-48" transform="translate(312.109375 0)"/>
     <use xlink:href="#DejaVuSans-44" transform="translate(373.640625 0)"/>
     <use xlink:href="#DejaVuSans-55" transform="translate(434.921875 0)"/>
     <use xlink:href="#DejaVuSans-46" transform="translate(473.828125 0)"/>
     <use xlink:href="#DejaVuSans-4b" transform="translate(528.8125 0)"/>
     <use xlink:href="#DejaVuSans-3" transform="translate(592.1875 0)"/>
     <use xlink:href="#DejaVuSans-44" transform="translate(623.96875 0)"/>
     <use xlink:href="#DejaVuSans-55" transform="translate(685.25 0)"/>
     <use xlink:href="#DejaVuSans-48" transform="translate(724.15625 0)"/>
     <use xlink:href="#DejaVuSans-44" transform="translate(785.6875 0)"/>
     <use xlink:href="#DejaVuSans-3" transform="translate(846.96875 0)"/>
     <use xlink:href="#DejaVuSans-b" transform="translate(878.75 0)"/>
     <use xlink:href="#DejaVuSans-15" transform="translate(917.765625 0)"/>
     <use xlink:href="#DejaVuSans-13" transform="translate(981.390625 0)"/>
     <use xlink:href="#DejaVuSans-15" transform="translate(1045.015625 0)"/>
     <use xlink:href="#DejaVuSans-19" transform="translate(1108.640625 0)"/>
     <use xlink:href="#DejaVuSans-3" transform="translate(1172.265625 0)"/>
     <use xlink:href="#DejaVuSans-4c" transform="translate(1204.046875 0)"/>
     <use xlink:href="#DejaVuSans-56" transform="translate(1231.828125 0)"/>
     <use xlink:href="#DejaVuSans-3" transform="translate(1283.921875 0)"/>
     <use xlink:href="#DejaVuSans-5c" transform="translate(1315.703125 0)"/>
     <use xlink:href="#DejaVuSans-48" transform="translate(1374.890625 0)"/>
     <use xlink:href="#DejaVuSans-44" transform="translate(1436.421875 0)"/>
     <use xlink:href="#DejaVuSans-55" transform="translate(1497.703125 0)"/>
     <use xlink:href="#DejaVuSans-3" transform="translate(1538.8125 0)"/>
     <use xlink:href="#DejaVuSans-57" transform="translate(1570.59375 0)"/>
     <use xlink:href="#DejaVuSans-52" transform="translate(1609.796875 0)"/>
     <use xlink:href="#DejaVuSans-3" transform="translate(1670.984375 0)"/>
     <use xlink:href="#DejaVuSans-47" transform="translate(1702.765625 0)"/>
     <use xlink:href="#DejaVuSans-44" transform="translate(1766.25 0)"/>
     <use xlink:href="#DejaVuSans-57" transform="translate(1827.53125 0)"/>
     <use xlink:href="#DejaVuSans-48" transform="translate(1866.734375 0)"/>
     <use xlink:href="#DejaVuSans-c" transform="translate(1928.265625 0)"/>
    </g>
   </g>
   <g id="text_14">
    <!-- Papers per year -->
    <g style="fill: #ffffff" transform="translate(20.06 20.16) scale(0.12 -0.12)">
     <defs>
      <path id="DejaVuSans-Bold-33" d="M 588 4666 
L 2584 4666 
Q 3475 4666 3951 4270 
Q 4428 3875 4428 3144 
Q 4428 2409 3951 2014 
Q 3475 1619 2584 1619 
L 1791 1619 
L 1791 0 
L 588 0 
L 588 4666 
z
M 1791 3794 
L 1791 2491 
L 2456 2491 
Q 2806 2491 2997 2661 
Q 3188 2831 3188 3144 
Q 3188 3456 2997 3625 
Q 2806 3794 2456 3794 
L 1791 3794 
z
" transform="scale(0.015625)"/>
      <path id="DejaVuSans-Bold-44" d="M 2106 1575 
Q 1756 1575 1579 1456 
Q 1403 1338 1403 1106 
Q 1403 894 1545 773 
Q 1688 653 1941 653 
Q 2256 653 2472 879 
Q 2688 1106 2688 1447 
L 2688 1575 
L 2106 1575 
z
M 3816 1997 
L 3816 0 
L 2688 0 
L 2688 519 
Q 2463 200 2181 54 
Q 1900 -91 1497 -91 
Q 953 -91 614 226 
Q 275 544 275 1050 
Q 275 1666 698 1953 
Q 1122 2241 2028 2241 
L 2688 2241 
L 2688 2328 
Q 2688 2594 2478 2717 
Q 2269 2841 1825 2841 
Q 1466 2841 1156 2769 
Q 847 2697 581 2553 
L 581 3406 
Q 941 3494 1303 3539 
Q 1666 3584 2028 3584 
Q 2975 3584 3395 3211 
Q 3816 2838 3816 1997 
z
" transform="scale(0.015625)"/>
      <path id="DejaVuSans-Bold-53" d="M 1656 506 
L 1656 -1331 
L 538 -1331 
L 538 3500 
L 1656 3500 
L 1656 2988 
Q 1888 3294 2169 3439 
Q 2450 3584 2816 3584 
Q 3463 3584 3878 3070 
Q 4294 2556 4294 1747 
Q 4294 938 3878 423 
Q 3463 -91 2816 -91 
Q 2450 -91 2169 54 
Q 1888 200 1656 506 
z
M 2400 2772 
Q 2041 2772 1848 2508 
Q 1656 2244 1656 1747 
Q 1656 1250 1848 986 
Q 2041 722 2400 722 
Q 2759 722 2948 984 
Q 3138 1247 3138 1747 
Q 3138 2247 2948 2509 
Q 2759 2772 2400 2772 
z
" transform="scale(0.015625)"/>
      <path id="DejaVuSans-Bold-48" d="M 4031 1759 
L 4031 1441 
L 1416 1441 
Q 1456 1047 1700 850 
Q 1944 653 2381 653 
Q 2734 653 3104 758 
Q 3475 863 3866 1075 
L 3866 213 
Q 3469 63 3072 -14 
Q 2675 -91 2278 -91 
Q 1328 -91 801 392 
Q 275 875 275 1747 
Q 275 2603 792 3093 
Q 1309 3584 2216 3584 
Q 3041 3584 3536 3087 
Q 4031 2591 4031 1759 
z
M 2881 2131 
Q 2881 2450 2695 2645 
Q 2509 2841 2209 2841 
Q 1884 2841 1681 2658 
Q 1478 2475 1428 2131 
L 2881 2131 
z
" transform="scale(0.015625)"/>
      <path id="DejaVuSans-Bold-55" d="M 3138 2547 
Q 2991 2616 2845 2648 
Q 2700 2681 2553 2681 
Q 2122 2681 1889 2404 
Q 1656 2128 1656 1613 
L 1656 0 
L 538 0 
L 538 3500 
L 1656 3500 
L 1656 2925 
Q 1872 3269 2151 3426 
Q 2431 3584 2822 3584 
Q 2878 3584 2943 3579 
Q 3009 3575 3134 3559 
L 3138 2547 
z
" transform="scale(0.015625)"/>
      <path id="DejaVuSans-Bold-56" d="M 3272 3391 
L 3272 2541 
Q 2913 2691 2578 2766 
Q 2244 2841 1947 2841 
Q 1628 2841 1473 2761 
Q 1319 2681 1319 2516 
Q 1319 2381 1436 2309 
Q 1553 2238 1856 2203 
L 2053 2175 
Q 2913 2066 3209 1816 
Q 3506 1566 3506 1031 
Q 3506 472 3093 190 
Q 2681 -91 1863 -91 
Q 1516 -91 1145 -36 
Q 775 19 384 128 
L 384 978 
Q 719 816 1070 734 
Q 1422 653 1784 653 
Q 2113 653 2278 743 
Q 2444 834 2444 1013 
Q 2444 1163 2330 1236 
Q 2216 1309 1875 1350 
L 1678 1375 
Q 931 1469 631 1722 
Q 331 1975 331 2491 
Q 331 3047 712 3315 
Q 1094 3584 1881 3584 
Q 2191 3584 2531 3537 
Q 2872 3491 3272 3391 
z
" transform="scale(0.015625)"/>
      <path id="DejaVuSans-Bold-3" transform="scale(0.015625)"/>
      <path id="DejaVuSans-Bold-5c" d="M 78 3500 
L 1197 3500 
L 2138 1125 
L 2938 3500 
L 4056 3500 
L 2584 -331 
Q 2363 -916 2067 -1148 
Q 1772 -1381 1288 -1381 
L 641 -1381 
L 641 -647 
L 991 -647 
Q 1275 -647 1404 -556 
Q 1534 -466 1606 -231 
L 1638 -134 
L 78 3500 
z
" transform="scale(0.015625)"/>
     </defs>
     <use xlink:href="#DejaVuSans-Bold-33"/>
     <use xlink:href="#DejaVuSans-Bold-44" transform="translate(70.609375 0)"/>
     <use xlink:href="#DejaVuSans-Bold-53" transform="translate(138.09375 0)"/>
     <use xlink:href="#DejaVuSans-Bold-48" transform="translate(209.671875 0)"/>
     <use xlink:href="#DejaVuSans-Bold-55" transform="translate(277.5 0)"/>
     <use xlink:href="#DejaVuSans-Bold-56" transform="translate(326.8125 0)"/>
     <use xlink:href="#DejaVuSans-Bold-3" transform="translate(386.328125 0)"/>
     <use xlink:href="#DejaVuSans-Bold-53" transform="translate(421.140625 0)"/>
     <use xlink:href="#DejaVuSans-Bold-48" transform="translate(492.71875 0)"/>
     <use xlink:href="#DejaVuSans-Bold-55" transform="translate(560.546875 0)"/>
     <use xlink:href="#DejaVuSans-Bold-3" transform="translate(609.859375 0)"/>
     <use xlink:href="#DejaVuSans-Bold-5c" transform="translate(644.671875 0)"/>
     <use xlink:href="#DejaVuSans-Bold-48" transform="translate(709.859375 0)"/>
     <use xlink:href="#DejaVuSans-Bold-44" transform="translate(777.6875 0)"/>
     <use xlink:href="#DejaVuSans-Bold-55" transform="translate(845.171875 0)"/>
    </g>
   </g>
   <g id="legend_1">
    <g id="patch_36">
     <path d="M 27.71 57.4175 
L 36.21 57.4175 
L 36.21 49.81 
L 27.71 49.81 
z
" style="fill: #3987e5"/>
    </g>
    <g id="text_15">
     <!-- Theory &amp; Foundations -->
     <g style="fill: #c3c2b7" transform="translate(43.01 56.525) scale(0.085 -0.085)">
      <defs>
       <path id="DejaVuSans-37" d="M -19 4666 
L 3928 4666 
L 3928 4134 
L 2272 4134 
L 2272 0 
L 1638 0 
L 1638 4134 
L -19 4134 
L -19 4666 
z
" transform="scale(0.015625)"/>
       <path id="DejaVuSans-9" d="M 1556 2509 
Q 1272 2256 1139 2004 
Q 1006 1753 1006 1478 
Q 1006 1022 1337 719 
Q 1669 416 2169 416 
Q 2466 416 2725 514 
Q 2984 613 3213 813 
L 1556 2509 
z
M 1997 2859 
L 3584 1234 
Q 3769 1513 3872 1830 
Q 3975 2147 3994 2503 
L 4575 2503 
Q 4538 2091 4375 1687 
Q 4213 1284 3922 891 
L 4794 0 
L 4006 0 
L 3559 459 
Q 3234 181 2878 45 
Q 2522 -91 2113 -91 
Q 1359 -91 881 339 
Q 403 769 403 1441 
Q 403 1841 612 2192 
Q 822 2544 1241 2853 
Q 1091 3050 1012 3245 
Q 934 3441 934 3628 
Q 934 4134 1281 4442 
Q 1628 4750 2203 4750 
Q 2463 4750 2720 4694 
Q 2978 4638 3244 4525 
L 3244 3956 
Q 2972 4103 2725 4179 
Q 2478 4256 2266 4256 
Q 1938 4256 1733 4082 
Q 1528 3909 1528 3634 
Q 1528 3475 1620 3314 
Q 1713 3153 1997 2859 
z
" transform="scale(0.015625)"/>
       <path id="DejaVuSans-29" d="M 628 4666 
L 3309 4666 
L 3309 4134 
L 1259 4134 
L 1259 2759 
L 3109 2759 
L 3109 2228 
L 1259 2228 
L 1259 0 
L 628 0 
L 628 4666 
z
" transform="scale(0.015625)"/>
       <path id="DejaVuSans-58" d="M 544 1381 
L 544 3500 
L 1119 3500 
L 1119 1403 
Q 1119 906 1312 657 
Q 1506 409 1894 409 
Q 2359 409 2629 706 
Q 2900 1003 2900 1516 
L 2900 3500 
L 3475 3500 
L 3475 0 
L 2900 0 
L 2900 538 
Q 2691 219 2414 64 
Q 2138 -91 1772 -91 
Q 1169 -91 856 284 
Q 544 659 544 1381 
z
M 1991 3584 
L 1991 3584 
z
" transform="scale(0.015625)"/>
       <path id="DejaVuSans-51" d="M 3513 2113 
L 3513 0 
L 2938 0 
L 2938 2094 
Q 2938 2591 2744 2837 
Q 2550 3084 2163 3084 
Q 1697 3084 1428 2787 
Q 1159 2491 1159 1978 
L 1159 0 
L 581 0 
L 581 3500 
L 1159 3500 
L 1159 2956 
Q 1366 3272 1645 3428 
Q 1925 3584 2291 3584 
Q 2894 3584 3203 3211 
Q 3513 2838 3513 2113 
z
" transform="scale(0.015625)"/>
      </defs>
      <use xlink:href="#DejaVuSans-37"/>
      <use xlink:href="#DejaVuSans-4b" transform="translate(61.078125 0)"/>
      <use xlink:href="#DejaVuSans-48" transform="translate(124.453125 0)"/>
      <use xlink:href="#DejaVuSans-52" transform="translate(185.984375 0)"/>
      <use xlink:href="#DejaVuSans-55" transform="translate(247.171875 0)"/>
      <use xlink:href="#DejaVuSans-5c" transform="translate(288.28125 0)"/>
      <use xlink:href="#DejaVuSans-3" transform="translate(347.46875 0)"/>
      <use xlink:href="#DejaVuSans-9" transform="translate(379.25 0)"/>
      <use xlink:href="#DejaVuSans-3" transform="translate(457.234375 0)"/>
      <use xlink:href="#DejaVuSans-29" transform="translate(489.015625 0)"/>
      <use xlink:href="#DejaVuSans-52" transform="translate(542.96875 0)"/>
      <use xlink:href="#DejaVuSans-58" transform="translate(604.15625 0)"/>
      <use xlink:href="#DejaVuSans-51" transform="translate(667.53125 0)"/>
      <use xlink:href="#DejaVuSans-47" transform="translate(730.90625 0)"/>
      <use xlink:href="#DejaVuSans-44" transform="translate(794.390625 0)"/>
      <use xlink:href="#DejaVuSans-57" transform="translate(855.671875 0)"/>
      <use xlink:href="#DejaVuSans-4c" transform="translate(894.875 0)"/>
      <use xlink:href="#DejaVuSans-52" transform="translate(922.65625 0)"/>
      <use xlink:href="#DejaVuSans-51" transform="translate(983.84375 0)"/>
      <use xlink:href="#DejaVuSans-56" transform="translate(1047.21875 0)"/>
     </g>
    </g>
    <g id="patch_37">
     <path d="M 27.71 70.424492 
L 36.21 70.424492 
L 36.21 62.816992 
L 27.71 62.816992 
z
" style="fill: #d95926"/>
    </g>
    <g id="text_16">
     <!-- Reasoning -->
     <g style="fill: #c3c2b7" transform="translate(43.01 69.531992) scale(0.085 -0.085)">
      <defs>
       <path id="DejaVuSans-35" d="M 2841 2188 
Q 3044 2119 3236 1894 
Q 3428 1669 3622 1275 
L 4263 0 
L 3584 0 
L 2988 1197 
Q 2756 1666 2539 1819 
Q 2322 1972 1947 1972 
L 1259 1972 
L 1259 0 
L 628 0 
L 628 4666 
L 2053 4666 
Q 2853 4666 3247 4331 
Q 3641 3997 3641 3322 
Q 3641 2881 3436 2590 
Q 3231 2300 2841 2188 
z
M 1259 4147 
L 1259 2491 
L 2053 2491 
Q 2509 2491 2742 2702 
Q 2975 2913 2975 3322 
Q 2975 3731 2742 3939 
Q 2509 4147 2053 4147 
L 1259 4147 
z
" transform="scale(0.015625)"/>
       <path id="DejaVuSans-4a" d="M 2906 1791 
Q 2906 2416 2648 2759 
Q 2391 3103 1925 3103 
Q 1463 3103 1205 2759 
Q 947 2416 947 1791 
Q 947 1169 1205 825 
Q 1463 481 1925 481 
Q 2391 481 2648 825 
Q 2906 1169 2906 1791 
z
M 3481 434 
Q 3481 -459 3084 -895 
Q 2688 -1331 1869 -1331 
Q 1566 -1331 1297 -1286 
Q 1028 -1241 775 -1147 
L 775 -588 
Q 1028 -725 1275 -790 
Q 1522 -856 1778 -856 
Q 2344 -856 2625 -561 
Q 2906 -266 2906 331 
L 2906 616 
Q 2728 306 2450 153 
Q 2172 0 1784 0 
Q 1141 0 747 490 
Q 353 981 353 1791 
Q 353 2603 747 3093 
Q 1141 3584 1784 3584 
Q 2172 3584 2450 3431 
Q 2728 3278 2906 2969 
L 2906 3500 
L 3481 3500 
L 3481 434 
z
" transform="scale(0.015625)"/>
      </defs>
      <use xlink:href="#DejaVuSans-35"/>
      <use xlink:href="#DejaVuSans-48" transform="translate(65 0)"/>
      <use xlink:href="#DejaVuSans-44" transform="translate(126.53125 0)"/>
      <use xlink:href="#DejaVuSans-56" transform="translate(187.8125 0)"/>
      <use xlink:href="#DejaVuSans-52" transform="translate(239.90625 0)"/>
      <use xlink:href="#DejaVuSans-51" transform="translate(301.09375 0)"/>
      <use xlink:href="#DejaVuSans-4c" transform="translate(364.46875 0)"/>
      <use xlink:href="#DejaVuSans-51" transform="translate(392.25 0)"/>
      <use xlink:href="#DejaVuSans-4a" transform="translate(455.625 0)"/>
     </g>
    </g>
    <g id="patch_38">
     <path d="M 27.71 83.431484 
L 36.21 83.431484 
L 36.21 75.823984 
L 27.71 75.823984 
z
" style="fill: #199e70"/>
    </g>
    <g id="text_17">
     <!-- Language Models &amp; Efficiency -->
     <g style="fill: #c3c2b7" transform="translate(43.01 82.538984) scale(0.085 -0.085)">
      <defs>
       <path id="DejaVuSans-2f" d="M 628 4666 
L 1259 4666 
L 1259 531 
L 3531 531 
L 3531 0 
L 628 0 
L 628 4666 
z
" transform="scale(0.015625)"/>
       <path id="DejaVuSans-30" d="M 628 4666 
L 1569 4666 
L 2759 1491 
L 3956 4666 
L 4897 4666 
L 4897 0 
L 4281 0 
L 4281 4097 
L 3078 897 
L 2444 897 
L 1241 4097 
L 1241 0 
L 628 0 
L 628 4666 
z
" transform="scale(0.015625)"/>
       <path id="DejaVuSans-4f" d="M 603 4863 
L 1178 4863 
L 1178 0 
L 603 0 
L 603 4863 
z
" transform="scale(0.015625)"/>
       <path id="DejaVuSans-28" d="M 628 4666 
L 3578 4666 
L 3578 4134 
L 1259 4134 
L 1259 2753 
L 3481 2753 
L 3481 2222 
L 1259 2222 
L 1259 531 
L 3634 531 
L 3634 0 
L 628 0 
L 628 4666 
z
" transform="scale(0.015625)"/>
       <path id="DejaVuSans-13b1" d="M 2375 4863 
L 2375 4384 
L 1825 4384 
Q 1516 4384 1394 4259 
Q 1275 4134 1275 3809 
L 1275 3500 
L 2853 3500 
L 2853 3744 
Q 2853 4328 3125 4594 
Q 3213 4681 3334 4741 
Q 3578 4863 3988 4863 
L 4531 4863 
L 4531 4384 
L 3981 4384 
Q 3672 4384 3551 4259 
Q 3431 4134 3431 3809 
L 3431 3500 
L 5588 3500 
L 5588 0 
L 5009 0 
L 5009 3053 
L 3431 3053 
L 3431 0 
L 2853 0 
L 2853 3053 
L 1275 3053 
L 1275 0 
L 697 0 
L 697 3053 
L 147 3053 
L 147 3500 
L 697 3500 
L 697 3744 
Q 697 4328 969 4595 
Q 1241 4863 1831 4863 
L 2375 4863 
z
M 5009 4856 
L 5588 4856 
L 5588 4128 
L 5009 4128 
L 5009 4856 
z
" transform="scale(0.015625)"/>
      </defs>
      <use xlink:href="#DejaVuSans-2f"/>
      <use xlink:href="#DejaVuSans-44" transform="translate(55.71875 0)"/>
      <use xlink:href="#DejaVuSans-51" transform="translate(117 0)"/>
      <use xlink:href="#DejaVuSans-4a" transform="translate(180.375 0)"/>
      <use xlink:href="#DejaVuSans-58" transform="translate(243.859375 0)"/>
      <use xlink:href="#DejaVuSans-44" transform="translate(307.234375 0)"/>
      <use xlink:href="#DejaVuSans-4a" transform="translate(368.515625 0)"/>
      <use xlink:href="#DejaVuSans-48" transform="translate(432 0)"/>
      <use xlink:href="#DejaVuSans-3" transform="translate(493.53125 0)"/>
      <use xlink:href="#DejaVuSans-30" transform="translate(525.3125 0)"/>
      <use xlink:href="#DejaVuSans-52" transform="translate(611.59375 0)"/>
      <use xlink:href="#DejaVuSans-47" transform="translate(672.78125 0)"/>
      <use xlink:href="#DejaVuSans-48" transform="translate(736.265625 0)"/>
      <use xlink:href="#DejaVuSans-4f" transform="translate(797.796875 0)"/>
      <use xlink:href="#DejaVuSans-56" transform="translate(825.578125 0)"/>
      <use xlink:href="#DejaVuSans-3" transform="translate(877.671875 0)"/>
      <use xlink:href="#DejaVuSans-9" transform="translate(909.453125 0)"/>
      <use xlink:href="#DejaVuSans-3" transform="translate(987.4375 0)"/>
      <use xlink:href="#DejaVuSans-28" transform="translate(1019.21875 0)"/>
      <use xlink:href="#DejaVuSans-13b1" transform="translate(1082.40625 0)"/>
      <use xlink:href="#DejaVuSans-46" transform="translate(1179.09375 0)"/>
      <use xlink:href="#DejaVuSans-4c" transform="translate(1234.078125 0)"/>
      <use xlink:href="#DejaVuSans-48" transform="translate(1261.859375 0)"/>
      <use xlink:href="#DejaVuSans-51" transform="translate(1323.390625 0)"/>
      <use xlink:href="#DejaVuSans-46" transform="translate(1386.765625 0)"/>
      <use xlink:href="#DejaVuSans-5c" transform="translate(1441.75 0)"/>
     </g>
    </g>
    <g id="patch_39">
     <path d="M 27.71 96.438477 
L 36.21 96.438477 
L 36.21 88.830977 
L 27.71 88.830977 
z
" style="fill: #c98500"/>
    </g>
    <g id="text_18">
     <!-- Diffusion, Vision &amp; Multimodal -->
     <g style="fill: #c3c2b7" transform="translate(43.01 95.545977) scale(0.085 -0.085)">
      <defs>
       <path id="DejaVuSans-27" d="M 1259 4147 
L 1259 519 
L 2022 519 
Q 2988 519 3436 956 
Q 3884 1394 3884 2338 
Q 3884 3275 3436 3711 
Q 2988 4147 2022 4147 
L 1259 4147 
z
M 628 4666 
L 1925 4666 
Q 3281 4666 3915 4102 
Q 4550 3538 4550 2338 
Q 4550 1131 3912 565 
Q 3275 0 1925 0 
L 628 0 
L 628 4666 
z
" transform="scale(0.015625)"/>
       <path id="DejaVuSans-13ae" d="M 4531 4863 
L 4531 4384 
L 3981 4384 
Q 3672 4384 3551 4259 
Q 3431 4134 3431 3809 
L 3431 3500 
L 4378 3500 
L 4378 3053 
L 3431 3053 
L 3431 0 
L 2853 0 
L 2853 3053 
L 1275 3053 
L 1275 0 
L 697 0 
L 697 3053 
L 147 3053 
L 147 3500 
L 697 3500 
L 697 3744 
Q 697 4328 969 4595 
Q 1241 4863 1831 4863 
L 2375 4863 
L 2375 4384 
L 1825 4384 
Q 1516 4384 1394 4259 
Q 1275 4134 1275 3809 
L 1275 3500 
L 2853 3500 
L 2853 3744 
Q 2853 4328 3125 4595 
Q 3397 4863 3988 4863 
L 4531 4863 
z
" transform="scale(0.015625)"/>
       <path id="DejaVuSans-f" d="M 750 794 
L 1409 794 
L 1409 256 
L 897 -744 
L 494 -744 
L 750 256 
L 750 794 
z
" transform="scale(0.015625)"/>
       <path id="DejaVuSans-39" d="M 1831 0 
L 50 4666 
L 709 4666 
L 2188 738 
L 3669 4666 
L 4325 4666 
L 2547 0 
L 1831 0 
z
" transform="scale(0.015625)"/>
       <path id="DejaVuSans-50" d="M 3328 2828 
Q 3544 3216 3844 3400 
Q 4144 3584 4550 3584 
Q 5097 3584 5394 3201 
Q 5691 2819 5691 2113 
L 5691 0 
L 5113 0 
L 5113 2094 
Q 5113 2597 4934 2840 
Q 4756 3084 4391 3084 
Q 3944 3084 3684 2787 
Q 3425 2491 3425 1978 
L 3425 0 
L 2847 0 
L 2847 2094 
Q 2847 2600 2669 2842 
Q 2491 3084 2119 3084 
Q 1678 3084 1418 2786 
Q 1159 2488 1159 1978 
L 1159 0 
L 581 0 
L 581 3500 
L 1159 3500 
L 1159 2956 
Q 1356 3278 1631 3431 
Q 1906 3584 2284 3584 
Q 2666 3584 2933 3390 
Q 3200 3197 3328 2828 
z
" transform="scale(0.015625)"/>
      </defs>
      <use xlink:href="#DejaVuSans-27"/>
      <use xlink:href="#DejaVuSans-4c" transform="translate(77 0)"/>
      <use xlink:href="#DejaVuSans-13ae" transform="translate(104.78125 0)"/>
      <use xlink:href="#DejaVuSans-58" transform="translate(173.671875 0)"/>
      <use xlink:href="#DejaVuSans-56" transform="translate(237.046875 0)"/>
      <use xlink:href="#DejaVuSans-4c" transform="translate(289.140625 0)"/>
      <use xlink:href="#DejaVuSans-52" transform="translate(316.921875 0)"/>
      <use xlink:href="#DejaVuSans-51" transform="translate(378.109375 0)"/>
      <use xlink:href="#DejaVuSans-f" transform="translate(441.484375 0)"/>
      <use xlink:href="#DejaVuSans-3" transform="translate(473.265625 0)"/>
      <use xlink:href="#DejaVuSans-39" transform="translate(505.046875 0)"/>
      <use xlink:href="#DejaVuSans-4c" transform="translate(571.25 0)"/>
      <use xlink:href="#DejaVuSans-56" transform="translate(599.03125 0)"/>
      <use xlink:href="#DejaVuSans-4c" transform="translate(651.125 0)"/>
      <use xlink:href="#DejaVuSans-52" transform="translate(678.90625 0)"/>
      <use xlink:href="#DejaVuSans-51" transform="translate(740.09375 0)"/>
      <use xlink:href="#DejaVuSans-3" transform="translate(803.46875 0)"/>
      <use xlink:href="#DejaVuSans-9" transform="translate(835.25 0)"/>
      <use xlink:href="#DejaVuSans-3" transform="translate(913.234375 0)"/>
      <use xlink:href="#DejaVuSans-30" transform="translate(945.015625 0)"/>
      <use xlink:href="#DejaVuSans-58" transform="translate(1031.296875 0)"/>
      <use xlink:href="#DejaVuSans-4f" transform="translate(1094.671875 0)"/>
      <use xlink:href="#DejaVuSans-57" transform="translate(1122.453125 0)"/>
      <use xlink:href="#DejaVuSans-4c" transform="translate(1161.65625 0)"/>
      <use xlink:href="#DejaVuSans-50" transform="translate(1189.4375 0)"/>
      <use xlink:href="#DejaVuSans-52" transform="translate(1286.84375 0)"/>
      <use xlink:href="#DejaVuSans-47" transform="translate(1348.03125 0)"/>
      <use xlink:href="#DejaVuSans-44" transform="translate(1411.515625 0)"/>
      <use xlink:href="#DejaVuSans-4f" transform="translate(1472.796875 0)"/>
     </g>
    </g>
   </g>
  </g>
  <g id="axes_2">
   <g id="patch_40">
    <path d="M 525.18407 279.1 
L 846.469635 279.1 
L 846.469635 42.16 
L 525.18407 42.16 
z
" style="fill: #1a1a19"/>
   </g>
   <g id="matplotlib.axis_3">
    <g id="xtick_9">
     <g id="line2d_13"/>
     <g id="text_19">
      <!-- 2018 -->
      <g style="fill: #898781" transform="translate(528.335459 289.437891) scale(0.09 -0.09)">
       <use xlink:href="#DejaVuSans-15"/>
       <use xlink:href="#DejaVuSans-13" transform="translate(63.625 0)"/>
       <use xlink:href="#DejaVuSans-14" transform="translate(127.25 0)"/>
       <use xlink:href="#DejaVuSans-1b" transform="translate(190.875 0)"/>
      </g>
     </g>
    </g>
    <g id="xtick_10">
     <g id="line2d_14"/>
     <g id="text_20">
      <!-- 2019 -->
      <g style="fill: #898781" transform="translate(561.702718 289.437891) scale(0.09 -0.09)">
       <use xlink:href="#DejaVuSans-15"/>
       <use xlink:href="#DejaVuSans-13" transform="translate(63.625 0)"/>
       <use xlink:href="#DejaVuSans-14" transform="translate(127.25 0)"/>
       <use xlink:href="#DejaVuSans-1c" transform="translate(190.875 0)"/>
      </g>
     </g>
    </g>
    <g id="xtick_11">
     <g id="line2d_15"/>
     <g id="text_21">
      <!-- 2020 -->
      <g style="fill: #898781" transform="translate(595.069977 289.437891) scale(0.09 -0.09)">
       <use xlink:href="#DejaVuSans-15"/>
       <use xlink:href="#DejaVuSans-13" transform="translate(63.625 0)"/>
       <use xlink:href="#DejaVuSans-15" transform="translate(127.25 0)"/>
       <use xlink:href="#DejaVuSans-13" transform="translate(190.875 0)"/>
      </g>
     </g>
    </g>
    <g id="xtick_12">
     <g id="line2d_16"/>
     <g id="text_22">
      <!-- 2021 -->
      <g style="fill: #898781" transform="translate(628.528653 289.437891) scale(0.09 -0.09)">
       <use xlink:href="#DejaVuSans-15"/>
       <use xlink:href="#DejaVuSans-13" transform="translate(63.625 0)"/>
       <use xlink:href="#DejaVuSans-15" transform="translate(127.25 0)"/>
       <use xlink:href="#DejaVuSans-14" transform="translate(190.875 0)"/>
      </g>
     </g>
    </g>
    <g id="xtick_13">
     <g id="line2d_17"/>
     <g id="text_23">
      <!-- 2022 -->
      <g style="fill: #898781" transform="translate(661.895912 289.437891) scale(0.09 -0.09)">
       <use xlink:href="#DejaVuSans-15"/>
       <use xlink:href="#DejaVuSans-13" transform="translate(63.625 0)"/>
       <use xlink:href="#DejaVuSans-15" transform="translate(127.25 0)"/>
       <use xlink:href="#DejaVuSans-15" transform="translate(190.875 0)"/>
      </g>
     </g>
    </g>
    <g id="xtick_14">
     <g id="line2d_18"/>
     <g id="text_24">
      <!-- 2023 -->
      <g style="fill: #898781" transform="translate(695.263171 289.437891) scale(0.09 -0.09)">
       <use xlink:href="#DejaVuSans-15"/>
       <use xlink:href="#DejaVuSans-13" transform="translate(63.625 0)"/>
       <use xlink:href="#DejaVuSans-15" transform="translate(127.25 0)"/>
       <use xlink:href="#DejaVuSans-16" transform="translate(190.875 0)"/>
      </g>
     </g>
    </g>
    <g id="xtick_15">
     <g id="line2d_19"/>
     <g id="text_25">
      <!-- 2024 -->
      <g style="fill: #898781" transform="translate(728.63043 289.437891) scale(0.09 -0.09)">
       <use xlink:href="#DejaVuSans-15"/>
       <use xlink:href="#DejaVuSans-13" transform="translate(63.625 0)"/>
       <use xlink:href="#DejaVuSans-15" transform="translate(127.25 0)"/>
       <use xlink:href="#DejaVuSans-17" transform="translate(190.875 0)"/>
      </g>
     </g>
    </g>
    <g id="xtick_16">
     <g id="line2d_20"/>
     <g id="text_26">
      <!-- 2025 -->
      <g style="fill: #898781" transform="translate(762.089106 289.437891) scale(0.09 -0.09)">
       <use xlink:href="#DejaVuSans-15"/>
       <use xlink:href="#DejaVuSans-13" transform="translate(63.625 0)"/>
       <use xlink:href="#DejaVuSans-15" transform="translate(127.25 0)"/>
       <use xlink:href="#DejaVuSans-18" transform="translate(190.875 0)"/>
      </g>
     </g>
    </g>
    <g id="xtick_17">
     <g id="line2d_21"/>
     <g id="text_27">
      <!-- 2026 -->
      <g style="fill: #898781" transform="translate(795.456364 289.437891) scale(0.09 -0.09)">
       <use xlink:href="#DejaVuSans-15"/>
       <use xlink:href="#DejaVuSans-13" transform="translate(63.625 0)"/>
       <use xlink:href="#DejaVuSans-15" transform="translate(127.25 0)"/>
       <use xlink:href="#DejaVuSans-19" transform="translate(190.875 0)"/>
      </g>
     </g>
    </g>
    <g id="xtick_18">
     <g id="line2d_22"/>
     <g id="text_28">
      <!-- 2027 -->
      <g style="fill: #898781" transform="translate(828.823623 289.437891) scale(0.09 -0.09)">
       <defs>
        <path id="DejaVuSans-1a" d="M 525 4666 
L 3525 4666 
L 3525 4397 
L 1831 0 
L 1172 0 
L 2766 4134 
L 525 4134 
L 525 4666 
z
" transform="scale(0.015625)"/>
       </defs>
       <use xlink:href="#DejaVuSans-15"/>
       <use xlink:href="#DejaVuSans-13" transform="translate(63.625 0)"/>
       <use xlink:href="#DejaVuSans-15" transform="translate(127.25 0)"/>
       <use xlink:href="#DejaVuSans-1a" transform="translate(190.875 0)"/>
      </g>
     </g>
    </g>
   </g>
   <g id="matplotlib.axis_4">
    <g id="ytick_3">
     <g id="line2d_23">
      <path d="M 525.18407 268.33 
L 846.469635 268.33 
" clip-path="url(#p6f6ae33641)" style="fill: none; stroke: #2c2c2a; stroke-width: 0.8; stroke-linecap: square"/>
     </g>
     <g id="line2d_24"/>
     <g id="text_29">
      <!-- 0 -->
      <g style="fill: #898781" transform="translate(515.95782 271.748945) scale(0.09 -0.09)">
       <use xlink:href="#DejaVuSans-13"/>
      </g>
     </g>
    </g>
    <g id="ytick_4">
     <g id="line2d_25">
      <path d="M 525.18407 160.63 
L 846.469635 160.63 
" clip-path="url(#p6f6ae33641)" style="fill: none; stroke: #2c2c2a; stroke-width: 0.8; stroke-linecap: square"/>
     </g>
     <g id="line2d_26"/>
     <g id="text_30">
      <!-- 1 -->
      <g style="fill: #898781" transform="translate(515.95782 164.048945) scale(0.09 -0.09)">
       <use xlink:href="#DejaVuSans-14"/>
      </g>
     </g>
    </g>
    <g id="ytick_5">
     <g id="line2d_27">
      <path d="M 525.18407 52.93 
L 846.469635 52.93 
" clip-path="url(#p6f6ae33641)" style="fill: none; stroke: #2c2c2a; stroke-width: 0.8; stroke-linecap: square"/>
     </g>
     <g id="line2d_28"/>
     <g id="text_31">
      <!-- 2 -->
      <g style="fill: #898781" transform="translate(515.95782 56.348945) scale(0.09 -0.09)">
       <use xlink:href="#DejaVuSans-15"/>
      </g>
     </g>
    </g>
   </g>
   <g id="FillBetweenPolyCollection_1">
    <defs>
     <path id="m9ae92cad1a" d="M 539.787959 -34.07 
L 539.787959 -34.07 
L 542.621891 -34.07 
L 545.181571 -34.07 
L 548.015502 -34.07 
L 550.758017 -34.07 
L 553.591948 -34.07 
L 556.334463 -141.77 
L 559.168394 -141.77 
L 562.002326 -141.77 
L 564.74484 -141.77 
L 567.578772 -141.77 
L 570.321286 -141.77 
L 573.155218 -141.77 
L 575.98915 -141.77 
L 578.54883 -141.77 
L 581.382761 -141.77 
L 584.125276 -141.77 
L 586.959207 -141.77 
L 589.701722 -141.77 
L 592.535653 -141.77 
L 595.369585 -141.77 
L 598.112099 -141.77 
L 600.946031 -141.77 
L 603.688545 -141.77 
L 606.522477 -141.77 
L 609.356408 -141.77 
L 612.007506 -141.77 
L 614.841437 -141.77 
L 617.583952 -141.77 
L 620.417883 -141.77 
L 623.160398 -141.77 
L 625.994329 -141.77 
L 628.828261 -141.77 
L 631.570775 -141.77 
L 634.404707 -141.77 
L 637.147221 -141.77 
L 639.981153 -141.77 
L 642.815084 -141.77 
L 645.374765 -141.77 
L 648.208696 -141.77 
L 650.951211 -141.77 
L 653.785142 -141.77 
L 656.527657 -141.77 
L 659.361588 -141.77 
L 662.19552 -141.77 
L 664.938034 -141.77 
L 667.771966 -141.77 
L 670.51448 -141.77 
L 673.348412 -141.77 
L 676.182343 -141.77 
L 678.742023 -141.77 
L 681.575955 -141.77 
L 684.318469 -141.77 
L 687.152401 -141.77 
L 689.894915 -141.77 
L 692.728847 -141.77 
L 695.562779 -141.77 
L 698.305293 -141.77 
L 701.139225 -141.77 
L 703.881739 -141.77 
L 706.715671 -141.77 
L 709.549602 -141.77 
L 712.109282 -141.77 
L 714.943214 -141.77 
L 717.685728 -141.77 
L 720.51966 -141.77 
L 723.262174 -141.77 
L 726.096106 -141.77 
L 728.930038 -141.77 
L 731.672552 -141.77 
L 734.506484 -141.77 
L 737.248998 -141.77 
L 740.08293 -141.77 
L 742.916861 -141.77 
L 745.567958 -141.77 
L 748.40189 -141.77 
L 751.144404 -141.77 
L 753.978336 -141.77 
L 756.72085 -141.77 
L 759.554782 -141.77 
L 762.388714 -141.77 
L 765.131228 -141.77 
L 767.96516 -141.77 
L 770.707674 -141.77 
L 773.541606 -141.77 
L 776.375537 -249.47 
L 778.935217 -249.47 
L 781.769149 -249.47 
L 784.511663 -249.47 
L 787.345595 -249.47 
L 790.088109 -249.47 
L 792.922041 -249.47 
L 795.755972 -249.47 
L 798.498487 -249.47 
L 801.332418 -249.47 
L 804.074933 -249.47 
L 806.908864 -249.47 
L 809.742796 -249.47 
L 812.302476 -249.47 
L 815.136408 -249.47 
L 817.878922 -249.47 
L 820.712854 -249.47 
L 823.455368 -249.47 
L 826.2893 -249.47 
L 829.123231 -249.47 
L 831.865746 -249.47 
L 831.865746 -34.07 
L 831.865746 -34.07 
L 829.123231 -34.07 
L 826.2893 -34.07 
L 823.455368 -34.07 
L 820.712854 -34.07 
L 817.878922 -34.07 
L 815.136408 -34.07 
L 812.302476 -34.07 
L 809.742796 -34.07 
L 806.908864 -34.07 
L 804.074933 -34.07 
L 801.332418 -34.07 
L 798.498487 -34.07 
L 795.755972 -34.07 
L 792.922041 -34.07 
L 790.088109 -34.07 
L 787.345595 -34.07 
L 784.511663 -34.07 
L 781.769149 -34.07 
L 778.935217 -34.07 
L 776.375537 -34.07 
L 773.541606 -34.07 
L 770.707674 -34.07 
L 767.96516 -34.07 
L 765.131228 -34.07 
L 762.388714 -34.07 
L 759.554782 -34.07 
L 756.72085 -34.07 
L 753.978336 -34.07 
L 751.144404 -34.07 
L 748.40189 -34.07 
L 745.567958 -34.07 
L 742.916861 -34.07 
L 740.08293 -34.07 
L 737.248998 -34.07 
L 734.506484 -34.07 
L 731.672552 -34.07 
L 728.930038 -34.07 
L 726.096106 -34.07 
L 723.262174 -34.07 
L 720.51966 -34.07 
L 717.685728 -34.07 
L 714.943214 -34.07 
L 712.109282 -34.07 
L 709.549602 -34.07 
L 706.715671 -34.07 
L 703.881739 -34.07 
L 701.139225 -34.07 
L 698.305293 -34.07 
L 695.562779 -34.07 
L 692.728847 -34.07 
L 689.894915 -34.07 
L 687.152401 -34.07 
L 684.318469 -34.07 
L 681.575955 -34.07 
L 678.742023 -34.07 
L 676.182343 -34.07 
L 673.348412 -34.07 
L 670.51448 -34.07 
L 667.771966 -34.07 
L 664.938034 -34.07 
L 662.19552 -34.07 
L 659.361588 -34.07 
L 656.527657 -34.07 
L 653.785142 -34.07 
L 650.951211 -34.07 
L 648.208696 -34.07 
L 645.374765 -34.07 
L 642.815084 -34.07 
L 639.981153 -34.07 
L 637.147221 -34.07 
L 634.404707 -34.07 
L 631.570775 -34.07 
L 628.828261 -34.07 
L 625.994329 -34.07 
L 623.160398 -34.07 
L 620.417883 -34.07 
L 617.583952 -34.07 
L 614.841437 -34.07 
L 612.007506 -34.07 
L 609.356408 -34.07 
L 606.522477 -34.07 
L 603.688545 -34.07 
L 600.946031 -34.07 
L 598.112099 -34.07 
L 595.369585 -34.07 
L 592.535653 -34.07 
L 589.701722 -34.07 
L 586.959207 -34.07 
L 584.125276 -34.07 
L 581.382761 -34.07 
L 578.54883 -34.07 
L 575.98915 -34.07 
L 573.155218 -34.07 
L 570.321286 -34.07 
L 567.578772 -34.07 
L 564.74484 -34.07 
L 562.002326 -34.07 
L 559.168394 -34.07 
L 556.334463 -34.07 
L 553.591948 -34.07 
L 550.758017 -34.07 
L 548.015502 -34.07 
L 545.181571 -34.07 
L 542.621891 -34.07 
L 539.787959 -34.07 
z
"/>
    </defs>
    <g clip-path="url(#p6f6ae33641)">
     <use xlink:href="#m9ae92cad1a" x="0" y="302.4" style="fill: #3987e5; fill-opacity: 0.12"/>
    </g>
   </g>
   <g id="line2d_29">
    <path d="M 539.787959 268.33 
L 542.621891 268.33 
L 545.181571 268.33 
L 548.015502 268.33 
L 550.758017 268.33 
L 553.591948 268.33 
L 556.334463 160.63 
L 559.168394 160.63 
L 562.002326 160.63 
L 564.74484 160.63 
L 567.578772 160.63 
L 570.321286 160.63 
L 573.155218 160.63 
L 575.98915 160.63 
L 578.54883 160.63 
L 581.382761 160.63 
L 584.125276 160.63 
L 586.959207 160.63 
L 589.701722 160.63 
L 592.535653 160.63 
L 595.369585 160.63 
L 598.112099 160.63 
L 600.946031 160.63 
L 603.688545 160.63 
L 606.522477 160.63 
L 609.356408 160.63 
L 612.007506 160.63 
L 614.841437 160.63 
L 617.583952 160.63 
L 620.417883 160.63 
L 623.160398 160.63 
L 625.994329 160.63 
L 628.828261 160.63 
L 631.570775 160.63 
L 634.404707 160.63 
L 637.147221 160.63 
L 639.981153 160.63 
L 642.815084 160.63 
L 645.374765 160.63 
L 648.208696 160.63 
L 650.951211 160.63 
L 653.785142 160.63 
L 656.527657 160.63 
L 659.361588 160.63 
L 662.19552 160.63 
L 664.938034 160.63 
L 667.771966 160.63 
L 670.51448 160.63 
L 673.348412 160.63 
L 676.182343 160.63 
L 678.742023 160.63 
L 681.575955 160.63 
L 684.318469 160.63 
L 687.152401 160.63 
L 689.894915 160.63 
L 692.728847 160.63 
L 695.562779 160.63 
L 698.305293 160.63 
L 701.139225 160.63 
L 703.881739 160.63 
L 706.715671 160.63 
L 709.549602 160.63 
L 712.109282 160.63 
L 714.943214 160.63 
L 717.685728 160.63 
L 720.51966 160.63 
L 723.262174 160.63 
L 726.096106 160.63 
L 728.930038 160.63 
L 731.672552 160.63 
L 734.506484 160.63 
L 737.248998 160.63 
L 740.08293 160.63 
L 742.916861 160.63 
L 745.567958 160.63 
L 748.40189 160.63 
L 751.144404 160.63 
L 753.978336 160.63 
L 756.72085 160.63 
L 759.554782 160.63 
L 762.388714 160.63 
L 765.131228 160.63 
L 767.96516 160.63 
L 770.707674 160.63 
L 773.541606 160.63 
L 776.375537 52.93 
L 778.935217 52.93 
L 781.769149 52.93 
L 784.511663 52.93 
L 787.345595 52.93 
L 790.088109 52.93 
L 792.922041 52.93 
L 795.755972 52.93 
L 798.498487 52.93 
L 801.332418 52.93 
L 804.074933 52.93 
L 806.908864 52.93 
L 809.742796 52.93 
L 812.302476 52.93 
L 815.136408 52.93 
L 817.878922 52.93 
L 820.712854 52.93 
L 823.455368 52.93 
L 826.2893 52.93 
L 829.123231 52.93 
L 831.865746 52.93 
" clip-path="url(#p6f6ae33641)" style="fill: none; stroke: #3987e5; stroke-width: 2; stroke-linecap: round"/>
   </g>
   <g id="line2d_30">
    <path d="M 831.865746 52.93 
" clip-path="url(#p6f6ae33641)" style="fill: none; stroke: #3987e5; stroke-width: 1.5; stroke-linecap: square"/>
    <defs>
     <path id="mdf05cbdf82" d="M 0 3 
C 0.795609 3 1.55874 2.683901 2.12132 2.12132 
C 2.683901 1.55874 3 0.795609 3 0 
C 3 -0.795609 2.683901 -1.55874 2.12132 -2.12132 
C 1.55874 -2.683901 0.795609 -3 0 -3 
C -0.795609 -3 -1.55874 -2.683901 -2.12132 -2.12132 
C -2.683901 -1.55874 -3 -0.795609 -3 0 
C -3 0.795609 -2.683901 1.55874 -2.12132 2.12132 
C -1.55874 2.683901 -0.795609 3 0 3 
z
" style="stroke: #1a1a19; stroke-width: 2"/>
    </defs>
    <g clip-path="url(#p6f6ae33641)">
     <use xlink:href="#mdf05cbdf82" x="831.865746" y="52.93" style="fill: #3987e5; stroke: #1a1a19; stroke-width: 2"/>
    </g>
   </g>
   <g id="patch_41">
    <path d="M 525.18407 279.1 
L 846.469635 279.1 
" style="fill: none; stroke: #383835; stroke-width: 0.8; stroke-linejoin: miter; stroke-linecap: square"/>
   </g>
   <g id="text_32">
    <!-- 2 total -->
    <g style="fill: #ffffff" transform="translate(790.524965 55.268242) scale(0.09 -0.09)">
     <defs>
      <path id="DejaVuSans-Bold-15" d="M 1844 884 
L 3897 884 
L 3897 0 
L 506 0 
L 506 884 
L 2209 2388 
Q 2438 2594 2547 2791 
Q 2656 2988 2656 3200 
Q 2656 3528 2436 3728 
Q 2216 3928 1850 3928 
Q 1569 3928 1234 3808 
Q 900 3688 519 3450 
L 519 4475 
Q 925 4609 1322 4679 
Q 1719 4750 2100 4750 
Q 2938 4750 3402 4381 
Q 3866 4013 3866 3353 
Q 3866 2972 3669 2642 
Q 3472 2313 2841 1759 
L 1844 884 
z
" transform="scale(0.015625)"/>
      <path id="DejaVuSans-Bold-57" d="M 1759 4494 
L 1759 3500 
L 2913 3500 
L 2913 2700 
L 1759 2700 
L 1759 1216 
Q 1759 972 1856 886 
Q 1953 800 2241 800 
L 2816 800 
L 2816 0 
L 1856 0 
Q 1194 0 917 276 
Q 641 553 641 1216 
L 641 2700 
L 84 2700 
L 84 3500 
L 641 3500 
L 641 4494 
L 1759 4494 
z
" transform="scale(0.015625)"/>
      <path id="DejaVuSans-Bold-52" d="M 2203 2784 
Q 1831 2784 1636 2517 
Q 1441 2250 1441 1747 
Q 1441 1244 1636 976 
Q 1831 709 2203 709 
Q 2569 709 2762 976 
Q 2956 1244 2956 1747 
Q 2956 2250 2762 2517 
Q 2569 2784 2203 2784 
z
M 2203 3584 
Q 3106 3584 3614 3096 
Q 4122 2609 4122 1747 
Q 4122 884 3614 396 
Q 3106 -91 2203 -91 
Q 1297 -91 786 396 
Q 275 884 275 1747 
Q 275 2609 786 3096 
Q 1297 3584 2203 3584 
z
" transform="scale(0.015625)"/>
      <path id="DejaVuSans-Bold-4f" d="M 538 4863 
L 1656 4863 
L 1656 0 
L 538 0 
L 538 4863 
z
" transform="scale(0.015625)"/>
     </defs>
     <use xlink:href="#DejaVuSans-Bold-15"/>
     <use xlink:href="#DejaVuSans-Bold-3" transform="translate(69.578125 0)"/>
     <use xlink:href="#DejaVuSans-Bold-57" transform="translate(104.390625 0)"/>
     <use xlink:href="#DejaVuSans-Bold-52" transform="translate(152.1875 0)"/>
     <use xlink:href="#DejaVuSans-Bold-57" transform="translate(220.890625 0)"/>
     <use xlink:href="#DejaVuSans-Bold-44" transform="translate(268.6875 0)"/>
     <use xlink:href="#DejaVuSans-Bold-4f" transform="translate(336.171875 0)"/>
    </g>
   </g>
   <g id="text_33">
    <!-- Everything in the list, by first arXiv / publication date -->
    <g style="fill: #c3c2b7" transform="translate(525.18407 31.704991) scale(0.09 -0.09)">
     <defs>
      <path id="DejaVuSans-59" d="M 191 3500 
L 800 3500 
L 1894 563 
L 2988 3500 
L 3597 3500 
L 2284 0 
L 1503 0 
L 191 3500 
z
" transform="scale(0.015625)"/>
      <path id="DejaVuSans-45" d="M 3116 1747 
Q 3116 2381 2855 2742 
Q 2594 3103 2138 3103 
Q 1681 3103 1420 2742 
Q 1159 2381 1159 1747 
Q 1159 1113 1420 752 
Q 1681 391 2138 391 
Q 2594 391 2855 752 
Q 3116 1113 3116 1747 
z
M 1159 2969 
Q 1341 3281 1617 3432 
Q 1894 3584 2278 3584 
Q 2916 3584 3314 3078 
Q 3713 2572 3713 1747 
Q 3713 922 3314 415 
Q 2916 -91 2278 -91 
Q 1894 -91 1617 61 
Q 1341 213 1159 525 
L 1159 0 
L 581 0 
L 581 4863 
L 1159 4863 
L 1159 2969 
z
" transform="scale(0.015625)"/>
      <path id="DejaVuSans-13af" d="M 3431 3500 
L 3431 0 
L 2853 0 
L 2853 3053 
L 1275 3053 
L 1275 0 
L 697 0 
L 697 3053 
L 147 3053 
L 147 3500 
L 697 3500 
L 697 3744 
Q 697 4316 967 4589 
Q 1238 4863 1797 4863 
L 2375 4863 
L 2375 4384 
L 1825 4384 
Q 1516 4384 1395 4259 
Q 1275 4134 1275 3809 
L 1275 3500 
L 3431 3500 
z
M 2853 4856 
L 3431 4856 
L 3431 4128 
L 2853 4128 
L 2853 4856 
z
" transform="scale(0.015625)"/>
      <path id="DejaVuSans-3b" d="M 403 4666 
L 1081 4666 
L 2241 2931 
L 3406 4666 
L 4084 4666 
L 2584 2425 
L 4184 0 
L 3506 0 
L 2194 1984 
L 872 0 
L 191 0 
L 1856 2491 
L 403 4666 
z
" transform="scale(0.015625)"/>
      <path id="DejaVuSans-12" d="M 1625 4666 
L 2156 4666 
L 531 -594 
L 0 -594 
L 1625 4666 
z
" transform="scale(0.015625)"/>
      <path id="DejaVuSans-53" d="M 1159 525 
L 1159 -1331 
L 581 -1331 
L 581 3500 
L 1159 3500 
L 1159 2969 
Q 1341 3281 1617 3432 
Q 1894 3584 2278 3584 
Q 2916 3584 3314 3078 
Q 3713 2572 3713 1747 
Q 3713 922 3314 415 
Q 2916 -91 2278 -91 
Q 1894 -91 1617 61 
Q 1341 213 1159 525 
z
M 3116 1747 
Q 3116 2381 2855 2742 
Q 2594 3103 2138 3103 
Q 1681 3103 1420 2742 
Q 1159 2381 1159 1747 
Q 1159 1113 1420 752 
Q 1681 391 2138 391 
Q 2594 391 2855 752 
Q 3116 1113 3116 1747 
z
" transform="scale(0.015625)"/>
     </defs>
     <use xlink:href="#DejaVuSans-28"/>
     <use xlink:href="#DejaVuSans-59" transform="translate(63.1875 0)"/>
     <use xlink:href="#DejaVuSans-48" transform="translate(122.375 0)"/>
     <use xlink:href="#DejaVuSans-55" transform="translate(183.90625 0)"/>
     <use xlink:href="#DejaVuSans-5c" transform="translate(225.015625 0)"/>
     <use xlink:href="#DejaVuSans-57" transform="translate(284.203125 0)"/>
     <use xlink:href="#DejaVuSans-4b" transform="translate(323.40625 0)"/>
     <use xlink:href="#DejaVuSans-4c" transform="translate(386.78125 0)"/>
     <use xlink:href="#DejaVuSans-51" transform="translate(414.5625 0)"/>
     <use xlink:href="#DejaVuSans-4a" transform="translate(477.9375 0)"/>
     <use xlink:href="#DejaVuSans-3" transform="translate(541.421875 0)"/>
     <use xlink:href="#DejaVuSans-4c" transform="translate(573.203125 0)"/>
     <use xlink:href="#DejaVuSans-51" transform="translate(600.984375 0)"/>
     <use xlink:href="#DejaVuSans-3" transform="translate(664.359375 0)"/>
     <use xlink:href="#DejaVuSans-57" transform="translate(696.140625 0)"/>
     <use xlink:href="#DejaVuSans-4b" transform="translate(735.34375 0)"/>
     <use xlink:href="#DejaVuSans-48" transform="translate(798.71875 0)"/>
     <use xlink:href="#DejaVuSans-3" transform="translate(860.25 0)"/>
     <use xlink:href="#DejaVuSans-4f" transform="translate(892.03125 0)"/>
     <use xlink:href="#DejaVuSans-4c" transform="translate(919.8125 0)"/>
     <use xlink:href="#DejaVuSans-56" transform="translate(947.59375 0)"/>
     <use xlink:href="#DejaVuSans-57" transform="translate(999.6875 0)"/>
     <use xlink:href="#DejaVuSans-f" transform="translate(1038.890625 0)"/>
     <use xlink:href="#DejaVuSans-3" transform="translate(1070.671875 0)"/>
     <use xlink:href="#DejaVuSans-45" transform="translate(1102.453125 0)"/>
     <use xlink:href="#DejaVuSans-5c" transform="translate(1165.9375 0)"/>
     <use xlink:href="#DejaVuSans-3" transform="translate(1225.125 0)"/>
     <use xlink:href="#DejaVuSans-13af" transform="translate(1256.90625 0)"/>
     <use xlink:href="#DejaVuSans-55" transform="translate(1319.890625 0)"/>
     <use xlink:href="#DejaVuSans-56" transform="translate(1361 0)"/>
     <use xlink:href="#DejaVuSans-57" transform="translate(1413.09375 0)"/>
     <use xlink:href="#DejaVuSans-3" transform="translate(1452.296875 0)"/>
     <use xlink:href="#DejaVuSans-44" transform="translate(1484.078125 0)"/>
     <use xlink:href="#DejaVuSans-55" transform="translate(1545.359375 0)"/>
     <use xlink:href="#DejaVuSans-3b" transform="translate(1586.46875 0)"/>
     <use xlink:href="#DejaVuSans-4c" transform="translate(1654.96875 0)"/>
     <use xlink:href="#DejaVuSans-59" transform="translate(1682.75 0)"/>
     <use xlink:href="#DejaVuSans-3" transform="translate(1741.9375 0)"/>
     <use xlink:href="#DejaVuSans-12" transform="translate(1773.71875 0)"/>
     <use xlink:href="#DejaVuSans-3" transform="translate(1807.40625 0)"/>
     <use xlink:href="#DejaVuSans-53" transform="translate(1839.1875 0)"/>
     <use xlink:href="#DejaVuSans-58" transform="translate(1902.671875 0)"/>
     <use xlink:href="#DejaVuSans-45" transform="translate(1966.046875 0)"/>
     <use xlink:href="#DejaVuSans-4f" transform="translate(2029.53125 0)"/>
     <use xlink:href="#DejaVuSans-4c" transform="translate(2057.3125 0)"/>
     <use xlink:href="#DejaVuSans-46" transform="translate(2085.09375 0)"/>
     <use xlink:href="#DejaVuSans-44" transform="translate(2140.078125 0)"/>
     <use xlink:href="#DejaVuSans-57" transform="translate(2201.359375 0)"/>
     <use xlink:href="#DejaVuSans-4c" transform="translate(2240.5625 0)"/>
     <use xlink:href="#DejaVuSans-52" transform="translate(2268.34375 0)"/>
     <use xlink:href="#DejaVuSans-51" transform="translate(2329.53125 0)"/>
     <use xlink:href="#DejaVuSans-3" transform="translate(2392.90625 0)"/>
     <use xlink:href="#DejaVuSans-47" transform="translate(2424.6875 0)"/>
     <use xlink:href="#DejaVuSans-44" transform="translate(2488.171875 0)"/>
     <use xlink:href="#DejaVuSans-57" transform="translate(2549.453125 0)"/>
     <use xlink:href="#DejaVuSans-48" transform="translate(2588.65625 0)"/>
    </g>
   </g>
   <g id="text_34">
    <!-- Cumulative papers -->
    <g style="fill: #ffffff" transform="translate(525.18407 20.16) scale(0.12 -0.12)">
     <defs>
      <path id="DejaVuSans-Bold-26" d="M 4288 256 
Q 3956 84 3597 -3 
Q 3238 -91 2847 -91 
Q 1681 -91 1000 561 
Q 319 1213 319 2328 
Q 319 3447 1000 4098 
Q 1681 4750 2847 4750 
Q 3238 4750 3597 4662 
Q 3956 4575 4288 4403 
L 4288 3438 
Q 3953 3666 3628 3772 
Q 3303 3878 2944 3878 
Q 2300 3878 1931 3465 
Q 1563 3053 1563 2328 
Q 1563 1606 1931 1193 
Q 2300 781 2944 781 
Q 3303 781 3628 887 
Q 3953 994 4288 1222 
L 4288 256 
z
" transform="scale(0.015625)"/>
      <path id="DejaVuSans-Bold-58" d="M 500 1363 
L 500 3500 
L 1625 3500 
L 1625 3150 
Q 1625 2866 1622 2436 
Q 1619 2006 1619 1863 
Q 1619 1441 1641 1255 
Q 1663 1069 1716 984 
Q 1784 875 1895 815 
Q 2006 756 2150 756 
Q 2500 756 2700 1025 
Q 2900 1294 2900 1772 
L 2900 3500 
L 4019 3500 
L 4019 0 
L 2900 0 
L 2900 506 
Q 2647 200 2364 54 
Q 2081 -91 1741 -91 
Q 1134 -91 817 281 
Q 500 653 500 1363 
z
" transform="scale(0.015625)"/>
      <path id="DejaVuSans-Bold-50" d="M 3781 2919 
Q 3994 3244 4286 3414 
Q 4578 3584 4928 3584 
Q 5531 3584 5847 3212 
Q 6163 2841 6163 2131 
L 6163 0 
L 5038 0 
L 5038 1825 
Q 5041 1866 5042 1909 
Q 5044 1953 5044 2034 
Q 5044 2406 4934 2573 
Q 4825 2741 4581 2741 
Q 4263 2741 4089 2478 
Q 3916 2216 3909 1719 
L 3909 0 
L 2784 0 
L 2784 1825 
Q 2784 2406 2684 2573 
Q 2584 2741 2328 2741 
Q 2006 2741 1831 2477 
Q 1656 2213 1656 1722 
L 1656 0 
L 531 0 
L 531 3500 
L 1656 3500 
L 1656 2988 
Q 1863 3284 2130 3434 
Q 2397 3584 2719 3584 
Q 3081 3584 3359 3409 
Q 3638 3234 3781 2919 
z
" transform="scale(0.015625)"/>
      <path id="DejaVuSans-Bold-4c" d="M 538 3500 
L 1656 3500 
L 1656 0 
L 538 0 
L 538 3500 
z
M 538 4863 
L 1656 4863 
L 1656 3950 
L 538 3950 
L 538 4863 
z
" transform="scale(0.015625)"/>
      <path id="DejaVuSans-Bold-59" d="M 97 3500 
L 1216 3500 
L 2088 1081 
L 2956 3500 
L 4078 3500 
L 2700 0 
L 1472 0 
L 97 3500 
z
" transform="scale(0.015625)"/>
     </defs>
     <use xlink:href="#DejaVuSans-Bold-26"/>
     <use xlink:href="#DejaVuSans-Bold-58" transform="translate(73.390625 0)"/>
     <use xlink:href="#DejaVuSans-Bold-50" transform="translate(144.578125 0)"/>
     <use xlink:href="#DejaVuSans-Bold-58" transform="translate(248.78125 0)"/>
     <use xlink:href="#DejaVuSans-Bold-4f" transform="translate(319.96875 0)"/>
     <use xlink:href="#DejaVuSans-Bold-44" transform="translate(354.25 0)"/>
     <use xlink:href="#DejaVuSans-Bold-57" transform="translate(421.734375 0)"/>
     <use xlink:href="#DejaVuSans-Bold-4c" transform="translate(469.53125 0)"/>
     <use xlink:href="#DejaVuSans-Bold-59" transform="translate(503.8125 0)"/>
     <use xlink:href="#DejaVuSans-Bold-48" transform="translate(569 0)"/>
     <use xlink:href="#DejaVuSans-Bold-3" transform="translate(636.828125 0)"/>
     <use xlink:href="#DejaVuSans-Bold-53" transform="translate(671.640625 0)"/>
     <use xlink:href="#DejaVuSans-Bold-44" transform="translate(743.21875 0)"/>
     <use xlink:href="#DejaVuSans-Bold-53" transform="translate(810.703125 0)"/>
     <use xlink:href="#DejaVuSans-Bold-48" transform="translate(882.28125 0)"/>
     <use xlink:href="#DejaVuSans-Bold-55" transform="translate(950.109375 0)"/>
     <use xlink:href="#DejaVuSans-Bold-56" transform="translate(999.421875 0)"/>
    </g>
   </g>
  </g>
 </g>
 <defs>
  <clipPath id="p81e0cc2d73">
   <rect x="20.06" y="42.16" width="465.86407" height="236.94"/>
  </clipPath>
  <clipPath id="p6f6ae33641">
   <rect x="525.18407" y="42.16" width="321.285565" height="236.94"/>
  </clipPath>
 </defs>
</svg>
